<?xml version="1.0" encoding="utf-8" standalone="no"?>
<!DOCTYPE svg PUBLIC "-//W3C//DTD SVG 1.1//EN"
  "http://www.w3.org/Graphics/SVG/1.1/DTD/svg11.dtd">
<svg xmlns:xlink="http://www.w3.org/1999/xlink" width="1000.586875pt" height="568.368252pt" viewBox="0 0 1000.586875 568.368252" xmlns="http://www.w3.org/2000/svg" version="1.1">
 <metadata>
  <rdf:RDF xmlns:dc="http://purl.org/dc/elements/1.1/" xmlns:cc="http://creativecommons.org/ns#" xmlns:rdf="http://www.w3.org/1999/02/22-rdf-syntax-ns#">
   <cc:Work>
    <dc:type rdf:resource="http://purl.org/dc/dcmitype/StillImage"/>
    <dc:date>2026-01-05T19:57:21.611911</dc:date>
    <dc:format>image/svg+xml</dc:format>
    <dc:creator>
     <cc:Agent>
      <dc:title>Matplotlib v3.10.8, https://matplotlib.org/</dc:title>
     </cc:Agent>
    </dc:creator>
   </cc:Work>
  </rdf:RDF>
 </metadata>
 <defs>
  <style type="text/css">*{stroke-linejoin: round; stroke-linecap: butt}</style>
 </defs>
 <g id="figure_1">
  <g id="patch_1">
   <path d="M 0 568.368252 
L 1000.586875 568.368252 
L 1000.586875 0 
L 0 0 
z
" style="fill: #ffffff"/>
  </g>
  <g id="axes_1">
   <g id="patch_2">
    <path d="M 50.836875 511.779541 
L 993.386875 511.779541 
L 993.386875 40.877187 
L 50.836875 40.877187 
z
" style="fill: #ffffff"/>
   </g>
   <g id="patch_3">
    <path d="M 260.918793 511.779541 
L 698.276274 511.779541 
L 698.276274 40.877187 
L 260.918793 40.877187 
z
" clip-path="url(#p9ea4f130d8)" style="fill: #ffd700; opacity: 0.15; stroke: #ffd700; stroke-linejoin: miter"/>
   </g>
   <g id="matplotlib.axis_1">
    <g id="xtick_1">
     <g id="line2d_1">
      <path d="M 93.210285 511.779541 
L 93.210285 40.877187 
" clip-path="url(#p9ea4f130d8)" style="fill: none; stroke: #b0b0b0; stroke-opacity: 0.2; stroke-width: 0.8; stroke-linecap: square"/>
     </g>
     <g id="line2d_2">
      <defs>
       <path id="md5d09b0251" d="M 0 0 
L 0 3.5 
" style="stroke: #000000; stroke-width: 0.8"/>
      </defs>
      <g>
       <use xlink:href="#md5d09b0251" x="93.210285" y="511.779541" style="stroke: #000000; stroke-width: 0.8"/>
      </g>
     </g>
     <g id="text_1">
      <text style="font-size: 10px; font-family: 'DejaVu Sans', 'Bitstream Vera Sans', 'Computer Modern Sans Serif', 'Lucida Grande', 'Verdana', 'Geneva', 'Lucid', 'Arial', 'Helvetica', 'Avant Garde', sans-serif" transform="translate(86.163524 542.148316) rotate(-45)">2020</text>
     </g>
    </g>
    <g id="xtick_2">
     <g id="line2d_3">
      <path d="M 265.146738 511.779541 
L 265.146738 40.877187 
" clip-path="url(#p9ea4f130d8)" style="fill: none; stroke: #b0b0b0; stroke-opacity: 0.2; stroke-width: 0.8; stroke-linecap: square"/>
     </g>
     <g id="line2d_4">
      <g>
       <use xlink:href="#md5d09b0251" x="265.146738" y="511.779541" style="stroke: #000000; stroke-width: 0.8"/>
      </g>
     </g>
     <g id="text_2">
      <text style="font-size: 10px; font-family: 'DejaVu Sans', 'Bitstream Vera Sans', 'Computer Modern Sans Serif', 'Lucida Grande', 'Verdana', 'Geneva', 'Lucid', 'Arial', 'Helvetica', 'Avant Garde', sans-serif" transform="translate(258.099977 542.148316) rotate(-45)">2021</text>
     </g>
    </g>
    <g id="xtick_3">
     <g id="line2d_5">
      <path d="M 436.61342 511.779541 
L 436.61342 40.877187 
" clip-path="url(#p9ea4f130d8)" style="fill: none; stroke: #b0b0b0; stroke-opacity: 0.2; stroke-width: 0.8; stroke-linecap: square"/>
     </g>
     <g id="line2d_6">
      <g>
       <use xlink:href="#md5d09b0251" x="436.61342" y="511.779541" style="stroke: #000000; stroke-width: 0.8"/>
      </g>
     </g>
     <g id="text_3">
      <text style="font-size: 10px; font-family: 'DejaVu Sans', 'Bitstream Vera Sans', 'Computer Modern Sans Serif', 'Lucida Grande', 'Verdana', 'Geneva', 'Lucid', 'Arial', 'Helvetica', 'Avant Garde', sans-serif" transform="translate(429.566659 542.148316) rotate(-45)">2022</text>
     </g>
    </g>
    <g id="xtick_4">
     <g id="line2d_7">
      <path d="M 608.080102 511.779541 
L 608.080102 40.877187 
" clip-path="url(#p9ea4f130d8)" style="fill: none; stroke: #b0b0b0; stroke-opacity: 0.2; stroke-width: 0.8; stroke-linecap: square"/>
     </g>
     <g id="line2d_8">
      <g>
       <use xlink:href="#md5d09b0251" x="608.080102" y="511.779541" style="stroke: #000000; stroke-width: 0.8"/>
      </g>
     </g>
     <g id="text_4">
      <text style="font-size: 10px; font-family: 'DejaVu Sans', 'Bitstream Vera Sans', 'Computer Modern Sans Serif', 'Lucida Grande', 'Verdana', 'Geneva', 'Lucid', 'Arial', 'Helvetica', 'Avant Garde', sans-serif" transform="translate(601.033341 542.148316) rotate(-45)">2023</text>
     </g>
    </g>
    <g id="xtick_5">
     <g id="line2d_9">
      <path d="M 779.546783 511.779541 
L 779.546783 40.877187 
" clip-path="url(#p9ea4f130d8)" style="fill: none; stroke: #b0b0b0; stroke-opacity: 0.2; stroke-width: 0.8; stroke-linecap: square"/>
     </g>
     <g id="line2d_10">
      <g>
       <use xlink:href="#md5d09b0251" x="779.546783" y="511.779541" style="stroke: #000000; stroke-width: 0.8"/>
      </g>
     </g>
     <g id="text_5">
      <text style="font-size: 10px; font-family: 'DejaVu Sans', 'Bitstream Vera Sans', 'Computer Modern Sans Serif', 'Lucida Grande', 'Verdana', 'Geneva', 'Lucid', 'Arial', 'Helvetica', 'Avant Garde', sans-serif" transform="translate(772.500022 542.148316) rotate(-45)">2024</text>
     </g>
    </g>
    <g id="xtick_6">
     <g id="line2d_11">
      <path d="M 951.483237 511.779541 
L 951.483237 40.877187 
" clip-path="url(#p9ea4f130d8)" style="fill: none; stroke: #b0b0b0; stroke-opacity: 0.2; stroke-width: 0.8; stroke-linecap: square"/>
     </g>
     <g id="line2d_12">
      <g>
       <use xlink:href="#md5d09b0251" x="951.483237" y="511.779541" style="stroke: #000000; stroke-width: 0.8"/>
      </g>
     </g>
     <g id="text_6">
      <text style="font-size: 10px; font-family: 'DejaVu Sans', 'Bitstream Vera Sans', 'Computer Modern Sans Serif', 'Lucida Grande', 'Verdana', 'Geneva', 'Lucid', 'Arial', 'Helvetica', 'Avant Garde', sans-serif" transform="translate(944.436476 542.148316) rotate(-45)">2025</text>
     </g>
    </g>
    <g id="text_7">
     <text style="font-size: 14px; font-family: 'DejaVu Sans', 'Bitstream Vera Sans', 'Computer Modern Sans Serif', 'Lucida Grande', 'Verdana', 'Geneva', 'Lucid', 'Arial', 'Helvetica', 'Avant Garde', sans-serif; text-anchor: middle" x="522.111875" y="558.256689" transform="rotate(-0 522.111875 558.256689)">Date</text>
    </g>
   </g>
   <g id="matplotlib.axis_2">
    <g id="ytick_1">
     <g id="line2d_13">
      <path d="M 50.836875 452.28641 
L 993.386875 452.28641 
" clip-path="url(#p9ea4f130d8)" style="fill: none; stroke: #b0b0b0; stroke-opacity: 0.2; stroke-width: 0.8; stroke-linecap: square"/>
     </g>
     <g id="line2d_14">
      <defs>
       <path id="mc39bd3434c" d="M 0 0 
L -3.5 0 
" style="stroke: #000000; stroke-width: 0.8"/>
      </defs>
      <g>
       <use xlink:href="#mc39bd3434c" x="50.836875" y="452.28641" style="stroke: #000000; stroke-width: 0.8"/>
      </g>
     </g>
     <g id="text_8">
      <text style="font-size: 10px; font-family: 'DejaVu Sans', 'Bitstream Vera Sans', 'Computer Modern Sans Serif', 'Lucida Grande', 'Verdana', 'Geneva', 'Lucid', 'Arial', 'Helvetica', 'Avant Garde', sans-serif; text-anchor: end" x="43.836875" y="456.085629" transform="rotate(-0 43.836875 456.085629)">100</text>
     </g>
    </g>
    <g id="ytick_2">
     <g id="line2d_15">
      <path d="M 50.836875 371.004978 
L 993.386875 371.004978 
" clip-path="url(#p9ea4f130d8)" style="fill: none; stroke: #b0b0b0; stroke-opacity: 0.2; stroke-width: 0.8; stroke-linecap: square"/>
     </g>
     <g id="line2d_16">
      <g>
       <use xlink:href="#mc39bd3434c" x="50.836875" y="371.004978" style="stroke: #000000; stroke-width: 0.8"/>
      </g>
     </g>
     <g id="text_9">
      <text style="font-size: 10px; font-family: 'DejaVu Sans', 'Bitstream Vera Sans', 'Computer Modern Sans Serif', 'Lucida Grande', 'Verdana', 'Geneva', 'Lucid', 'Arial', 'Helvetica', 'Avant Garde', sans-serif; text-anchor: end" x="43.836875" y="374.804197" transform="rotate(-0 43.836875 374.804197)">150</text>
     </g>
    </g>
    <g id="ytick_3">
     <g id="line2d_17">
      <path d="M 50.836875 289.723547 
L 993.386875 289.723547 
" clip-path="url(#p9ea4f130d8)" style="fill: none; stroke: #b0b0b0; stroke-opacity: 0.2; stroke-width: 0.8; stroke-linecap: square"/>
     </g>
     <g id="line2d_18">
      <g>
       <use xlink:href="#mc39bd3434c" x="50.836875" y="289.723547" style="stroke: #000000; stroke-width: 0.8"/>
      </g>
     </g>
     <g id="text_10">
      <text style="font-size: 10px; font-family: 'DejaVu Sans', 'Bitstream Vera Sans', 'Computer Modern Sans Serif', 'Lucida Grande', 'Verdana', 'Geneva', 'Lucid', 'Arial', 'Helvetica', 'Avant Garde', sans-serif; text-anchor: end" x="43.836875" y="293.522766" transform="rotate(-0 43.836875 293.522766)">200</text>
     </g>
    </g>
    <g id="ytick_4">
     <g id="line2d_19">
      <path d="M 50.836875 208.442116 
L 993.386875 208.442116 
" clip-path="url(#p9ea4f130d8)" style="fill: none; stroke: #b0b0b0; stroke-opacity: 0.2; stroke-width: 0.8; stroke-linecap: square"/>
     </g>
     <g id="line2d_20">
      <g>
       <use xlink:href="#mc39bd3434c" x="50.836875" y="208.442116" style="stroke: #000000; stroke-width: 0.8"/>
      </g>
     </g>
     <g id="text_11">
      <text style="font-size: 10px; font-family: 'DejaVu Sans', 'Bitstream Vera Sans', 'Computer Modern Sans Serif', 'Lucida Grande', 'Verdana', 'Geneva', 'Lucid', 'Arial', 'Helvetica', 'Avant Garde', sans-serif; text-anchor: end" x="43.836875" y="212.241334" transform="rotate(-0 43.836875 212.241334)">250</text>
     </g>
    </g>
    <g id="ytick_5">
     <g id="line2d_21">
      <path d="M 50.836875 127.160684 
L 993.386875 127.160684 
" clip-path="url(#p9ea4f130d8)" style="fill: none; stroke: #b0b0b0; stroke-opacity: 0.2; stroke-width: 0.8; stroke-linecap: square"/>
     </g>
     <g id="line2d_22">
      <g>
       <use xlink:href="#mc39bd3434c" x="50.836875" y="127.160684" style="stroke: #000000; stroke-width: 0.8"/>
      </g>
     </g>
     <g id="text_12">
      <text style="font-size: 10px; font-family: 'DejaVu Sans', 'Bitstream Vera Sans', 'Computer Modern Sans Serif', 'Lucida Grande', 'Verdana', 'Geneva', 'Lucid', 'Arial', 'Helvetica', 'Avant Garde', sans-serif; text-anchor: end" x="43.836875" y="130.959903" transform="rotate(-0 43.836875 130.959903)">300</text>
     </g>
    </g>
    <g id="ytick_6">
     <g id="line2d_23">
      <path d="M 50.836875 45.879253 
L 993.386875 45.879253 
" clip-path="url(#p9ea4f130d8)" style="fill: none; stroke: #b0b0b0; stroke-opacity: 0.2; stroke-width: 0.8; stroke-linecap: square"/>
     </g>
     <g id="line2d_24">
      <g>
       <use xlink:href="#mc39bd3434c" x="50.836875" y="45.879253" style="stroke: #000000; stroke-width: 0.8"/>
      </g>
     </g>
     <g id="text_13">
      <text style="font-size: 10px; font-family: 'DejaVu Sans', 'Bitstream Vera Sans', 'Computer Modern Sans Serif', 'Lucida Grande', 'Verdana', 'Geneva', 'Lucid', 'Arial', 'Helvetica', 'Avant Garde', sans-serif; text-anchor: end" x="43.836875" y="49.678472" transform="rotate(-0 43.836875 49.678472)">350</text>
     </g>
    </g>
    <g id="text_14">
     <text style="font-size: 14px; font-family: 'DejaVu Sans', 'Bitstream Vera Sans', 'Computer Modern Sans Serif', 'Lucida Grande', 'Verdana', 'Geneva', 'Lucid', 'Arial', 'Helvetica', 'Avant Garde', sans-serif; text-anchor: middle" x="17.837813" y="276.328364" transform="rotate(-90 17.837813 276.328364)">Price (USD)</text>
    </g>
   </g>
   <g id="line2d_25">
    <path d="M 93.680057 390.154882 
L 94.149829 397.340157 
L 96.028915 392.625844 
L 96.498687 390.788876 
L 97.438231 379.929689 
L 98.847546 383.587353 
L 99.317318 387.19625 
L 99.787089 388.236652 
L 100.726633 387.895259 
L 102.60572 391.975578 
L 103.075491 395.714529 
L 103.545263 396.689916 
L 104.015035 403.517551 
L 105.42435 409.564891 
L 105.894122 408.50823 
L 106.363894 409.256018 
L 106.833665 410.442732 
L 107.303437 413.986603 
L 108.712752 402.720984 
L 109.182524 401.290448 
L 109.652296 402.298329 
L 110.122067 398.380559 
L 110.591839 402.038223 
L 112.001154 401.810636 
L 112.940698 391.341584 
L 113.410469 395.096807 
L 113.880241 396.088416 
L 115.759328 396.722435 
L 116.2291 394.072653 
L 117.168643 403.842672 
L 119.04773 412.572302 
L 119.517502 414.01911 
L 119.987274 419.920138 
L 120.457045 419.806344 
L 121.866361 418.522109 
L 122.336132 423.073861 
L 122.805904 417.481695 
L 123.275676 422.634947 
L 123.745448 429.950276 
L 125.154763 441.475977 
L 125.624534 432.925167 
L 126.094306 438.874974 
L 126.564078 453.912038 
L 127.03385 451.814976 
L 128.443165 469.062897 
L 128.912937 466.70574 
L 129.382708 478.914202 
L 129.85248 469.16043 
L 130.322252 470.721032 
L 131.731567 466.559427 
L 132.201339 458.089903 
L 132.67111 457.293349 
L 133.140882 449.327766 
L 133.610654 456.139154 
L 135.019969 453.993325 
L 135.489741 451.002162 
L 135.959513 456.057868 
L 136.429284 452.952923 
L 136.899056 456.838175 
L 138.308371 447.507058 
L 138.778143 449.376533 
L 139.247915 456.626835 
L 139.717686 453.912038 
L 141.596773 454.93618 
L 142.066545 450.790834 
L 142.536317 450.872108 
L 143.47586 444.158267 
L 144.885175 444.678467 
L 145.354947 449.994267 
L 145.824719 449.44156 
L 146.294491 452.530257 
L 146.764262 450.742068 
L 148.173578 451.376062 
L 148.643349 456.951968 
L 149.113121 452.82287 
L 149.582893 450.774575 
L 150.052664 458.756417 
L 151.46198 460.8047 
L 151.931751 459.162824 
L 153.341067 452.66031 
L 154.750382 453.017938 
L 155.689925 459.617998 
L 156.159697 458.756417 
L 156.629469 452.513997 
L 158.508556 436.436531 
L 158.978327 438.436059 
L 159.448099 435.981357 
L 159.917871 446.889323 
L 161.796958 438.696153 
L 162.266729 438.92374 
L 162.736501 442.012437 
L 163.206273 441.638537 
L 165.08536 440.533109 
L 165.555132 432.047338 
L 166.024903 437.558218 
L 166.494675 428.877355 
L 167.90399 424.601956 
L 168.373762 426.552706 
L 168.843534 424.959597 
L 169.313305 433.05522 
L 169.783077 425.837437 
L 171.192392 424.943337 
L 171.662164 415.254592 
L 172.131936 416.473813 
L 172.601708 414.149164 
L 173.071479 414.766898 
L 174.480794 414.766898 
L 174.950566 414.360491 
L 175.420338 417.546722 
L 175.89011 413.710237 
L 176.359881 416.847701 
L 177.769197 417.676775 
L 178.238968 419.952657 
L 178.70874 418.749696 
L 179.178512 414.409258 
L 181.057599 398.754471 
L 181.52737 407.045162 
L 181.997142 402.47715 
L 182.466914 399.404713 
L 182.936686 399.729833 
L 184.346001 407.028915 
L 184.815773 410.84914 
L 185.285544 411.564408 
L 185.755316 414.197931 
L 186.225088 415.270851 
L 187.634403 412.702355 
L 188.104175 411.288054 
L 188.573946 415.303358 
L 189.043718 417.985648 
L 189.51349 421.366959 
L 190.922805 426.503939 
L 191.392577 426.780293 
L 191.862348 420.066451 
L 192.33212 423.025094 
L 192.801892 420.749212 
L 194.211207 418.879737 
L 194.680979 408.930897 
L 195.150751 410.263912 
L 195.620522 410.702827 
L 196.090294 411.645694 
L 197.499609 411.54816 
L 197.969381 412.295948 
L 198.439153 409.841245 
L 198.908924 412.344715 
L 199.378696 425.07339 
L 200.788011 413.401376 
L 201.257783 412.946202 
L 201.727555 415.368385 
L 202.197327 414.116644 
L 202.667098 415.791052 
L 204.076413 415.092031 
L 204.546185 410.507759 
L 205.015957 407.630389 
L 205.485729 407.98803 
L 205.9555 405.14318 
L 207.364816 412.344715 
L 207.834587 408.50823 
L 208.774131 417.465448 
L 209.243903 415.108279 
L 211.122989 420.895525 
L 211.592761 420.749212 
L 212.062533 421.139359 
L 212.532305 418.765943 
L 213.94162 416.71766 
L 214.411392 412.474768 
L 214.881163 409.971299 
L 215.350935 412.182155 
L 215.820707 412.198402 
L 217.230022 412.377222 
L 217.699794 413.222556 
L 218.169565 415.027005 
L 218.639337 413.66147 
L 219.109109 413.612703 
L 220.518424 409.955039 
L 220.988196 415.579712 
L 221.457968 409.060951 
L 221.927739 409.288538 
L 222.397511 412.263428 
L 223.806826 412.133388 
L 224.276598 411.922048 
L 224.74637 409.451098 
L 225.216141 408.800844 
L 225.685913 409.223511 
L 227.095228 407.223982 
L 227.565 408.31315 
L 228.034772 393.649973 
L 228.504543 403.452537 
L 228.974315 402.916076 
L 230.38363 404.736772 
L 230.853402 403.387498 
L 231.323174 395.649514 
L 231.792946 398.868252 
L 232.262717 397.128842 
L 233.672032 398.721951 
L 234.141804 395.568228 
L 234.611576 402.379616 
L 235.551119 398.559379 
L 236.960435 396.93375 
L 237.430206 396.836216 
L 237.899978 386.757324 
L 238.36975 380.856284 
L 240.248837 380.449877 
L 240.718608 381.977972 
L 241.18838 382.286845 
L 241.658152 383.24596 
L 242.127924 379.003068 
L 243.537239 374.516342 
L 244.007011 380.888803 
L 244.476782 383.896202 
L 244.946554 392.983484 
L 245.416326 393.584959 
L 246.825641 398.575651 
L 247.295413 396.429809 
L 248.704728 388.204132 
L 250.114043 388.903141 
L 250.583815 386.83861 
L 251.053587 381.246444 
L 251.523358 380.36859 
L 251.99313 380.644944 
L 253.402445 380.271057 
L 253.872217 379.149369 
L 254.81176 357.479736 
L 255.281532 352.732904 
L 256.690847 349.93682 
L 257.160619 313.295162 
L 257.630391 305.329592 
L 258.100162 305.801013 
L 258.569934 301.606888 
L 259.979249 300.972894 
L 260.449021 303.93155 
L 260.918793 300.51772 
L 261.388565 304.321685 
L 263.267652 300.972894 
L 263.737423 297.737884 
L 264.207195 257.812449 
L 264.676967 263.323329 
L 266.556054 262.412981 
L 267.025825 266.964746 
L 267.495597 283.269799 
L 267.965369 276.897338 
L 268.435141 224.291995 
L 269.844456 257.942502 
L 270.314227 225.592503 
L 270.783999 229.672822 
L 271.253771 210.067744 
L 271.723543 226.53537 
L 273.60263 207.759355 
L 274.072401 190.722774 
L 274.542173 205.337159 
L 275.011945 203.971637 
L 276.42126 200.525312 
L 276.891032 211.205679 
L 277.360803 229.282687 
L 277.830575 216.781599 
L 278.300347 232.794026 
L 279.709662 221.625965 
L 280.179434 207.596782 
L 280.649206 206.361313 
L 281.118977 194.738078 
L 281.588749 175.718204 
L 282.998064 165.200384 
L 283.467836 135.223788 
L 283.937608 120.576908 
L 284.407379 111.570912 
L 286.756238 84.569195 
L 287.22601 113.05024 
L 287.695781 130.395669 
L 288.165553 62.28184 
L 289.574868 68.979422 
L 290.04464 90.405245 
L 290.514412 120.641898 
L 291.453955 154.048596 
L 292.863271 134.345985 
L 293.333042 124.023233 
L 293.802814 163.24966 
L 294.272586 191.226715 
L 294.742357 189.389746 
L 296.151673 236.598015 
L 296.621444 185.228141 
L 297.091216 200.086386 
L 297.560988 172.060539 
L 298.03076 185.276908 
L 299.440075 183.196105 
L 299.909846 181.164069 
L 300.379618 164.338803 
L 300.84939 184.301521 
L 301.319162 196.298668 
L 302.728477 182.220718 
L 303.198249 189.666125 
L 303.66802 226.015157 
L 304.137792 282.294412 
L 304.607564 275.726884 
L 306.016879 282.083097 
L 306.486651 260.088344 
L 306.956422 261.19376 
L 307.426194 257.698668 
L 309.305281 253.488296 
L 309.775053 246.563102 
L 310.244825 253.959717 
L 310.714596 246.205462 
L 311.184368 257.747435 
L 312.593683 266.737159 
L 313.063455 262.803141 
L 313.533227 263.290835 
L 314.002998 273.093373 
L 314.47277 267.680027 
L 315.882085 273.629834 
L 316.351857 276.734765 
L 316.821629 265.924345 
L 317.291401 266.054398 
L 317.761172 255.68288 
L 319.170487 262.965689 
L 319.640259 263.063248 
L 320.110031 263.989843 
L 320.579803 269.744582 
L 321.049574 272.9308 
L 322.45889 281.692938 
L 323.398433 296.827536 
L 323.868205 302.192116 
L 324.337976 303.460104 
L 325.747292 316.643953 
L 326.217063 306.435007 
L 326.686835 316.887812 
L 327.156607 323.374055 
L 327.626379 312.140955 
L 329.035694 307.280341 
L 329.505466 307.800529 
L 329.975237 307.345355 
L 330.445009 300.599007 
L 330.914781 306.743881 
L 332.324096 307.670476 
L 332.793868 301.476835 
L 333.263639 298.046758 
L 333.733411 298.160564 
L 336.08227 286.764891 
L 336.552041 293.218639 
L 337.021813 306.0286 
L 337.491585 301.119195 
L 338.9009 307.735515 
L 339.370672 308.288223 
L 339.840444 311.295646 
L 340.310215 305.63844 
L 340.779987 309.735032 
L 342.189302 306.256187 
L 342.659074 311.994654 
L 343.128846 314.741971 
L 344.068389 311.92964 
L 345.477704 313.197628 
L 345.947476 309.865085 
L 346.417248 307.329108 
L 346.88702 298.225578 
L 347.356791 285.431888 
L 348.766106 281.302803 
L 349.235878 277.254978 
L 349.70565 283.383605 
L 350.175422 287.350118 
L 350.645193 295.088127 
L 352.52428 310.938006 
L 352.994052 317.830655 
L 353.463824 328.933702 
L 353.933595 320.025264 
L 355.342911 321.602125 
L 355.812682 314.77449 
L 356.282454 320.057783 
L 356.752226 313.262643 
L 357.221998 322.918881 
L 358.631313 328.007106 
L 359.101085 325.666197 
L 359.570856 321.407058 
L 360.040628 324.69081 
L 360.5104 334.168228 
L 361.919715 350.89596 
L 362.389487 358.276303 
L 362.859258 343.726932 
L 363.32903 343.271758 
L 363.798802 348.22993 
L 365.208117 344.003286 
L 365.677889 348.099877 
L 366.14766 348.538779 
L 366.617432 345.222507 
L 367.087204 347.823523 
L 368.496519 344.133339 
L 368.966291 345.726448 
L 369.436063 346.701835 
L 369.905834 355.350167 
L 370.375606 367.022193 
L 371.784921 376.580873 
L 372.254693 383.392261 
L 372.724465 382.449393 
L 373.194236 391.60169 
L 373.664008 391.081502 
L 375.073323 382.774539 
L 375.543095 362.746782 
L 376.012867 362.665496 
L 376.482639 363.738416 
L 376.95241 365.705438 
L 378.361725 365.835491 
L 378.831497 359.593059 
L 379.301269 346.327948 
L 379.771041 350.89596 
L 380.240812 349.904326 
L 382.119899 343.889505 
L 382.589671 350.392019 
L 383.059443 348.815158 
L 383.529215 348.083605 
L 384.93853 349.449152 
L 385.408301 353.903358 
L 385.878073 351.936362 
L 386.347845 355.463973 
L 386.817617 351.156042 
L 388.226932 363.68965 
L 388.696704 360.096999 
L 389.166475 354.94376 
L 389.636247 353.935878 
L 390.106019 360.324586 
L 391.515334 359.723112 
L 391.985106 364.469944 
L 392.454877 367.883774 
L 392.924649 364.908871 
L 393.394421 368.436482 
L 394.803736 376.873499 
L 395.273508 371.330099 
L 395.74328 372.04538 
L 396.682823 351.351134 
L 398.092138 351.237328 
L 398.56191 355.610273 
L 399.031682 348.490012 
L 399.501453 350.3595 
L 399.971225 348.847652 
L 401.38054 336.801763 
L 401.850312 323.861748 
L 402.320084 320.675505 
L 402.789855 321.260733 
L 403.259627 326.072604 
L 404.668942 329.600215 
L 405.138714 340.394388 
L 405.608486 342.15007 
L 406.078258 340.589456 
L 406.548029 351.107275 
L 407.957344 337.972193 
L 408.427116 351.058508 
L 408.896888 346.019074 
L 409.36666 350.554567 
L 409.836431 357.626062 
L 411.245747 352.440302 
L 411.715518 352.09891 
L 412.18529 352.212715 
L 412.655062 342.946637 
L 413.124834 337.565786 
L 414.534149 340.654495 
L 415.00392 336.427851 
L 415.943464 363.917237 
L 416.413236 368.127609 
L 417.822551 374.565109 
L 418.292323 370.208411 
L 419.701638 366.030559 
L 421.110953 370.533557 
L 421.580725 371.265085 
L 422.050496 372.906961 
L 422.520268 372.695621 
L 422.99004 391.504156 
L 424.399355 374.825216 
L 424.869127 371.183799 
L 425.338899 372.744413 
L 425.80867 373.134548 
L 426.278442 372.077899 
L 428.627301 384.969122 
L 429.097072 386.984911 
L 429.566844 383.863707 
L 430.976159 391.227803 
L 431.445931 379.425723 
L 431.915703 381.636579 
L 432.385474 380.563683 
L 434.264561 381.132638 
L 434.734333 385.830704 
L 435.204105 393.276086 
L 435.673877 370.013344 
L 436.143648 372.972 
L 437.552964 372.468034 
L 438.492507 380.953818 
L 438.962279 369.785757 
L 439.43205 365.591632 
L 440.841366 367.168494 
L 441.311137 360.113272 
L 441.780909 355.789093 
L 442.250681 366.924659 
L 442.720453 363.640883 
L 444.599539 366.225626 
L 445.069311 363.722169 
L 445.539083 351.448668 
L 446.008855 359.885685 
L 447.41817 372.549321 
L 447.887942 369.428117 
L 448.357713 373.768542 
L 448.827485 381.197677 
L 449.297257 376.645912 
L 450.706572 355.171347 
L 451.176344 352.960491 
L 451.646115 357.561023 
L 452.115887 363.982251 
L 452.585659 357.382203 
L 453.994974 361.901448 
L 454.464746 349.888054 
L 454.934518 343.856985 
L 455.404289 347.33583 
L 455.874061 353.708291 
L 457.283376 353.464456 
L 457.753148 343.596879 
L 458.22292 342.800312 
L 458.692691 344.344679 
L 459.162463 358.455123 
L 461.511322 371.29758 
L 461.981094 369.184282 
L 462.450865 365.949272 
L 463.86018 367.038441 
L 464.329952 350.099393 
L 464.799724 353.822072 
L 465.269496 362.567962 
L 465.739267 375.45921 
L 467.148583 389.911047 
L 467.618354 392.430752 
L 468.088126 380.384863 
L 468.557898 395.129301 
L 469.027669 421.529519 
L 470.436985 437.704519 
L 470.906756 438.663646 
L 471.376528 369.590689 
L 471.8463 375.63803 
L 472.316072 372.565593 
L 473.725387 376.402077 
L 474.195158 363.543349 
L 474.66493 363.039408 
L 475.604474 376.629664 
L 477.483561 374.760177 
L 477.953332 381.035104 
L 478.423104 399.7786 
L 478.892876 385.684403 
L 480.302191 364.827585 
L 480.771963 379.750868 
L 481.711506 394.235201 
L 482.181278 395.779568 
L 483.590593 398.559379 
L 484.060365 401.90817 
L 484.530137 395.925868 
L 484.999908 404.232832 
L 486.878995 408.833351 
L 487.348767 409.028431 
L 487.818539 416.018639 
L 488.28831 426.325119 
L 488.758082 428.601001 
L 490.167397 425.349744 
L 490.637169 432.89266 
L 491.106941 422.179773 
L 491.576713 418.879737 
L 492.046484 412.994969 
L 493.455799 406.996395 
L 493.925571 407.467829 
L 494.395343 400.34758 
L 495.334886 425.04087 
L 496.744202 441.524744 
L 497.213973 439.427681 
L 497.683745 442.386337 
L 498.153517 439.476461 
L 498.623288 424.748257 
L 500.032604 423.350215 
L 500.502375 414.181671 
L 500.972147 421.627053 
L 501.441919 411.092986 
L 501.911691 412.507275 
L 503.321006 413.271323 
L 503.790778 426.715266 
L 504.260549 420.879265 
L 504.730321 393.454906 
L 505.200093 388.740593 
L 507.07918 386.692285 
L 507.548951 385.131695 
L 508.018723 377.182372 
L 508.488495 381.701618 
L 509.89781 375.898112 
L 510.367582 370.062111 
L 510.837353 366.32316 
L 511.307125 378.30406 
L 511.776897 382.595718 
L 513.186212 400.461361 
L 513.655984 385.960757 
L 514.125756 379.425723 
L 514.595527 391.520404 
L 515.065299 387.537619 
L 516.944386 378.108968 
L 517.414158 382.88832 
L 517.883929 377.296153 
L 518.353701 368.826642 
L 519.763016 362.486675 
L 520.232788 364.843857 
L 521.172332 373.069534 
L 521.642103 368.582783 
L 523.52119 364.096057 
L 523.990962 372.305486 
L 524.460734 363.380776 
L 524.930505 367.10348 
L 526.339821 381.197677 
L 526.809592 381.604084 
L 527.279364 378.710467 
L 527.749136 383.896202 
L 528.218907 387.114964 
L 529.628223 385.505583 
L 530.097994 383.392261 
L 530.567766 385.928237 
L 531.037538 379.83213 
L 531.50731 387.245017 
L 532.916625 386.854858 
L 533.386397 390.236168 
L 533.856168 385.619389 
L 534.32594 386.285878 
L 534.795712 392.837159 
L 536.205027 395.37316 
L 536.674799 396.75493 
L 537.14457 392.739625 
L 537.614342 387.147459 
L 538.084114 390.805123 
L 539.493429 393.113538 
L 539.963201 394.414021 
L 540.902744 388.269146 
L 541.372516 386.676037 
L 542.781831 388.057832 
L 543.721375 399.225892 
L 544.191146 406.232348 
L 546.070233 401.144122 
L 546.540005 396.901231 
L 547.009777 389.049466 
L 547.479548 369.34683 
L 547.94932 374.727657 
L 549.358635 375.361651 
L 549.828407 391.016463 
L 550.298179 380.807517 
L 550.767951 379.978455 
L 551.237722 387.179978 
L 553.116809 395.551981 
L 553.586581 391.731743 
L 554.056353 393.991366 
L 554.526124 389.813514 
L 555.93544 387.976545 
L 556.405211 401.387981 
L 556.874983 405.517067 
L 557.344755 407.890496 
L 557.814527 413.775264 
L 559.223842 409.613658 
L 559.693613 409.759959 
L 560.163385 420.472858 
L 560.633157 421.692079 
L 561.102929 421.805873 
L 562.512244 420.635418 
L 562.982016 420.960552 
L 563.451787 417.497955 
L 563.921559 423.480269 
L 564.391331 423.854169 
L 565.800646 420.619159 
L 566.270418 414.409258 
L 566.740189 414.474284 
L 567.209961 415.433412 
L 567.679733 419.058557 
L 569.089048 427.820694 
L 569.55882 438.20846 
L 570.028592 440.142962 
L 570.498363 440.663163 
L 570.968135 451.814976 
L 572.847222 448.563719 
L 573.316994 463.226896 
L 573.786765 463.064323 
L 574.256537 466.543167 
L 575.665852 485.205389 
L 576.135624 482.831973 
L 576.605396 477.987594 
L 577.075167 483.25464 
L 577.544939 487.172399 
L 578.954254 490.374889 
L 579.424026 487.67634 
L 579.893798 487.838912 
L 580.36357 487.806393 
L 580.833341 476.345718 
L 582.242656 476.638332 
L 582.712428 476.361966 
L 583.1822 485.644304 
L 583.651972 474.86639 
L 584.121743 469.420537 
L 585.531059 466.185539 
L 586.00083 452.774103 
L 586.470602 460.82096 
L 586.940374 452.969171 
L 587.410146 458.837691 
L 588.819461 461.129833 
L 589.289232 460.2845 
L 589.759004 457.163296 
L 590.698548 463.080583 
L 592.107863 460.99978 
L 592.577635 452.871637 
L 593.047406 438.306006 
L 593.517178 438.192213 
L 593.98695 429.85273 
L 595.396265 424.780776 
L 595.866037 424.114263 
L 596.335808 428.584741 
L 596.80558 419.237377 
L 597.275352 419.790097 
L 598.684667 425.300977 
L 599.154439 421.139359 
L 599.624211 421.041826 
L 600.093982 430.015303 
L 600.563754 431.819751 
L 601.973069 432.648813 
L 602.442841 439.102561 
L 602.912613 430.681804 
L 603.382384 431.575905 
L 603.852156 433.41286 
L 605.731243 425.496045 
L 606.201015 433.42912 
L 606.670786 427.73942 
L 607.140558 428.909875 
L 609.019645 421.188139 
L 609.489417 400.656453 
L 609.959189 399.404713 
L 610.42896 398.543131 
L 611.838276 398.006671 
L 612.308047 395.795815 
L 612.777819 389.50464 
L 613.247591 392.918445 
L 613.717362 388.919413 
L 615.596449 402.509669 
L 616.066221 410.150119 
L 616.535993 406.476207 
L 617.005765 394.170186 
L 618.41508 393.211071 
L 618.884851 398.982058 
L 619.354623 396.641149 
L 619.824395 389.813514 
L 620.294167 388.821879 
L 621.703482 389.732227 
L 622.173254 395.909621 
L 622.643025 367.347314 
L 623.112797 368.907928 
L 623.582569 382.286845 
L 624.991884 382.67698 
L 625.461656 354.391052 
L 625.931427 367.201013 
L 626.401199 374.14243 
L 626.870971 388.903141 
L 629.21983 367.688707 
L 629.689601 372.61436 
L 630.159373 384.481429 
L 632.03846 385.928237 
L 632.508232 391.943083 
L 632.978003 390.610056 
L 633.447775 399.437232 
L 634.85709 388.301666 
L 635.326862 391.016463 
L 636.266406 370.631091 
L 636.736177 365.380292 
L 638.145492 371.801545 
L 638.615264 382.969606 
L 639.085036 383.847435 
L 639.554808 401.144122 
L 640.024579 399.583533 
L 641.433895 397.584016 
L 641.903666 392.625844 
L 642.373438 398.478092 
L 642.84321 390.252415 
L 643.312981 376.141971 
L 644.722297 370.712377 
L 645.192068 368.160128 
L 645.66184 373.183315 
L 646.131612 369.52565 
L 646.601384 360.81228 
L 648.010699 366.567019 
L 648.48047 354.813706 
L 648.950242 358.081236 
L 649.420014 364.795065 
L 649.889786 369.509403 
L 651.768873 373.329615 
L 652.238644 379.880922 
L 652.708416 379.149369 
L 654.587503 388.886893 
L 655.057275 392.642091 
L 655.527046 393.113538 
L 656.46659 405.549587 
L 657.875905 401.014094 
L 658.345677 401.599321 
L 658.815449 406.524974 
L 659.28522 407.679156 
L 659.754992 411.710721 
L 661.164307 415.514686 
L 661.634079 424.748257 
L 662.103851 424.53693 
L 662.573622 422.277307 
L 663.043394 418.782203 
L 664.452709 417.693035 
L 664.922481 423.789142 
L 665.392253 425.154664 
L 665.862025 417.579241 
L 666.331796 414.165423 
L 667.741111 415.726025 
L 668.210883 420.619159 
L 668.680655 421.562026 
L 669.150427 412.994969 
L 669.620198 419.660044 
L 671.029514 407.402802 
L 671.499285 399.160878 
L 671.969057 402.672217 
L 672.438829 412.068361 
L 672.9086 412.816149 
L 674.317916 410.101352 
L 674.787687 417.237861 
L 675.257459 421.220646 
L 675.727231 421.935926 
L 676.197003 409.890012 
L 678.545861 415.140798 
L 679.015633 402.233315 
L 679.485405 397.909137 
L 680.89472 399.827367 
L 681.364492 391.406623 
L 681.834263 398.982058 
L 682.304035 397.990424 
L 682.773807 395.064287 
L 684.183122 396.429809 
L 684.652894 383.083387 
L 685.122665 375.540471 
L 685.592437 373.102028 
L 686.062209 378.954301 
L 687.941296 381.539045 
L 688.411068 385.863223 
L 688.880839 384.140061 
L 689.350611 388.415472 
L 690.759926 387.927778 
L 691.229698 380.921323 
L 691.69947 384.3514 
L 692.169241 396.104688 
L 692.639013 392.284451 
L 694.048328 381.847918 
L 694.987872 384.156308 
L 695.457644 390.203649 
L 695.927415 382.937087 
L 697.33673 382.465665 
L 697.806502 381.847918 
L 698.276274 372.906961 
L 698.746046 367.24978 
L 699.215817 372.289214 
L 700.625133 371.557686 
L 701.094904 380.384863 
L 702.034448 382.335612 
L 702.504219 384.822822 
L 703.913535 373.069534 
L 704.383306 373.069534 
L 704.853078 371.703987 
L 705.32285 374.207469 
L 705.792622 362.291608 
L 707.201937 361.267454 
L 707.671709 365.819219 
L 708.14148 376.385805 
L 708.611252 371.118784 
L 709.081024 373.833581 
L 710.490339 375.881864 
L 710.960111 380.888803 
L 711.429882 382.498185 
L 711.899654 381.083871 
L 712.369426 390.658823 
L 713.778741 391.179036 
L 714.248513 394.8367 
L 714.718284 402.574683 
L 715.188056 403.728891 
L 715.657828 411.385588 
L 717.067143 411.775747 
L 718.006687 399.437232 
L 718.476458 396.998789 
L 718.94623 397.29139 
L 720.355545 391.682977 
L 720.825317 386.107057 
L 721.295089 379.003068 
L 721.76486 382.660733 
L 722.234632 376.743445 
L 724.583491 384.237594 
L 725.053263 392.024345 
L 725.523034 394.30024 
L 726.932349 390.284935 
L 727.402121 390.431236 
L 728.341665 392.073136 
L 728.811436 394.349006 
L 730.220752 396.998789 
L 731.160295 401.599321 
L 731.630067 406.768808 
L 732.099839 399.697314 
L 733.509154 400.185007 
L 733.978925 401.875675 
L 734.448697 401.030341 
L 734.918469 399.534766 
L 735.388241 396.446057 
L 736.797556 398.559379 
L 737.267328 404.866826 
L 737.737099 407.077682 
L 738.206871 403.354978 
L 738.676643 395.779568 
L 740.085958 397.697797 
L 740.55573 395.974635 
L 741.025501 396.819969 
L 741.495273 406.573741 
L 741.965045 411.35308 
L 743.37436 411.791995 
L 744.313904 428.373414 
L 744.783675 439.508968 
L 745.253447 441.78485 
L 746.662762 440.256755 
L 747.132534 433.705474 
L 747.602306 439.313888 
L 748.072077 438.240979 
L 748.541849 440.809476 
L 749.951164 442.256284 
L 750.420936 444.158267 
L 750.890708 444.207033 
L 751.360479 440.825723 
L 751.830251 436.582831 
L 753.709338 439.265121 
L 754.17911 440.224248 
L 754.648882 443.89816 
L 755.118653 442.630172 
L 756.527969 440.565629 
L 756.99774 436.777911 
L 757.467512 431.413344 
L 757.937284 437.184318 
L 758.407055 439.11882 
L 759.816371 433.933061 
L 760.286142 430.470477 
L 760.755914 419.578757 
L 761.695458 414.246697 
L 763.104773 413.271323 
L 763.574544 420.375324 
L 764.044316 422.976328 
L 764.514088 421.952174 
L 764.98386 425.024623 
L 766.393175 430.015303 
L 767.332718 430.535503 
L 767.80249 426.633992 
L 768.272262 430.42171 
L 769.681577 430.24289 
L 770.151349 430.909391 
L 770.62112 432.193639 
L 771.090892 431.299538 
L 771.560664 429.332529 
L 772.969979 432.356199 
L 773.439751 428.519715 
L 773.909523 434.030595 
L 774.379294 423.659089 
L 774.849066 428.324647 
L 776.728153 428.438441 
L 777.197925 428.893615 
L 777.667696 423.317708 
L 778.137468 421.253165 
L 780.016555 427.349273 
L 780.486327 423.529035 
L 780.956098 422.504894 
L 781.42587 422.781248 
L 782.835185 423.187655 
L 783.304957 425.951231 
L 783.774729 426.617732 
L 784.244501 424.130522 
L 784.714272 437.476932 
L 786.593359 444.971081 
L 787.063131 448.710032 
L 787.532903 446.369123 
L 789.41199 452.741584 
L 789.881761 440.598136 
L 790.351533 435.022229 
L 790.821305 438.289746 
L 791.291077 439.834089 
L 792.700392 439.671528 
L 793.170163 443.686833 
L 793.639935 443.654326 
L 794.109707 444.190774 
L 794.579479 447.750904 
L 795.988794 446.417889 
L 796.458566 439.996661 
L 797.398109 447.13317 
L 797.867881 443.036579 
L 799.277196 441.378443 
L 799.746968 446.092769 
L 800.216739 441.378443 
L 800.686511 441.167116 
L 801.156283 440.711929 
L 803.03537 443.280426 
L 803.505142 440.549369 
L 803.974913 435.071009 
L 804.444685 433.819268 
L 805.854 435.071009 
L 806.323772 432.193639 
L 806.793544 446.905583 
L 807.263315 450.124321 
L 807.733087 445.751388 
L 809.142402 451.115955 
L 809.612174 455.13126 
L 810.081946 453.294304 
L 810.551718 455.84654 
L 811.021489 455.098753 
L 812.430804 450.189347 
L 812.900576 443.719352 
L 813.370348 439.460201 
L 813.84012 444.743494 
L 814.309891 446.011482 
L 815.719207 444.532167 
L 816.188978 445.507541 
L 816.65875 445.962715 
L 817.128522 449.522846 
L 817.598293 448.742539 
L 819.007609 443.085346 
L 819.47738 446.336603 
L 819.947152 444.174526 
L 820.416924 443.703093 
L 822.296011 438.5661 
L 822.765782 438.4198 
L 823.235554 438.76118 
L 823.705326 438.517333 
L 824.175098 441.736083 
L 825.584413 447.328237 
L 826.054185 446.59671 
L 826.523956 449.669147 
L 826.993728 448.514952 
L 827.4635 456.285455 
L 828.872815 458.447544 
L 829.342587 458.593844 
L 829.812358 461.373668 
L 830.28213 459.471685 
L 830.751902 460.333266 
L 832.161217 456.773148 
L 833.100761 453.603165 
L 834.040304 451.441088 
L 835.449619 442.256284 
L 835.919391 446.75927 
L 836.389163 445.263695 
L 836.858934 433.185273 
L 837.328706 430.486724 
L 838.738021 430.616777 
L 839.207793 435.168542 
L 839.677565 436.680377 
L 840.147337 434.615822 
L 840.617108 438.20846 
L 842.026423 433.120247 
L 842.496195 436.972991 
L 842.965967 434.810902 
L 843.435739 431.819751 
L 843.90551 435.087256 
L 845.314826 437.867079 
L 845.784597 443.93068 
L 846.254369 448.368639 
L 847.193912 451.831236 
L 849.072999 452.676557 
L 849.542771 454.77362 
L 850.012543 454.058339 
L 850.482315 456.838175 
L 851.89163 459.325385 
L 852.361402 460.6584 
L 852.831173 456.513042 
L 853.300945 455.927814 
L 853.770717 458.967744 
L 855.180032 459.634246 
L 855.649804 462.121468 
L 856.119575 461.422447 
L 856.589347 462.056441 
L 857.059119 465.307699 
L 858.468434 466.250554 
L 858.938206 467.128395 
L 859.877749 470.477198 
L 860.347521 470.834838 
L 861.756836 470.607239 
L 862.226608 470.899853 
L 862.69638 471.436313 
L 863.166151 473.354555 
L 863.635923 474.264903 
L 865.045238 474.70383 
L 865.51501 473.630909 
L 865.984782 468.445162 
L 866.924325 470.217092 
L 868.33364 471.87524 
L 868.803412 459.764299 
L 869.742956 451.197242 
L 870.212727 453.798245 
L 871.622042 463.421963 
L 872.091814 462.479096 
L 872.561586 466.770767 
L 873.031358 467.079628 
L 873.501129 467.941209 
L 874.910445 464.852524 
L 875.849988 470.574732 
L 876.31976 472.135334 
L 876.789531 470.200832 
L 878.198847 467.729882 
L 878.668618 470.590992 
L 879.13839 470.867345 
L 880.077934 477.499913 
L 881.487249 480.913731 
L 881.957021 479.905837 
L 882.426792 481.531465 
L 882.896564 474.16737 
L 883.366336 476.508279 
L 884.775651 476.296939 
L 885.245423 474.72009 
L 885.715194 478.312728 
L 886.184966 474.752597 
L 886.654738 470.217092 
L 888.064053 468.250082 
L 888.533825 471.82646 
L 889.003596 468.965363 
L 889.473368 475.386591 
L 889.94314 475.532904 
L 891.352455 474.68757 
L 891.822227 476.963453 
L 892.291999 480.962498 
L 892.76177 478.589081 
L 893.231542 477.288574 
L 895.110629 479.255583 
L 895.580401 480.929991 
L 896.050172 480.23097 
L 896.519944 483.157094 
L 897.929259 482.149212 
L 898.399031 481.466439 
L 898.868803 478.377754 
L 899.338575 478.182674 
L 899.808346 478.865435 
L 901.217661 478.166415 
L 901.687433 476.036845 
L 902.157205 477.2073 
L 902.626977 473.387075 
L 903.096748 474.655063 
L 904.506064 471.338779 
L 904.975835 460.723426 
L 905.445607 462.023922 
L 905.915379 448.124804 
L 906.385151 443.881913 
L 907.794466 443.686833 
L 908.734009 427.690653 
L 909.203781 437.281852 
L 909.673553 435.282336 
L 911.082868 428.763562 
L 911.55264 442.516378 
L 912.022411 445.686361 
L 912.492183 445.670102 
L 912.961955 446.109016 
L 914.37127 453.733218 
L 914.841042 462.088948 
L 915.310813 459.975639 
L 915.780585 465.112619 
L 916.250357 461.406187 
L 917.659672 465.909173 
L 918.129444 465.323946 
L 918.599216 468.623982 
L 919.068987 469.388017 
L 919.538759 468.884077 
L 920.948074 463.454483 
L 921.417846 462.706695 
L 921.887618 464.933798 
L 922.827161 468.510189 
L 924.236476 467.794908 
L 924.706248 465.486519 
L 925.17602 467.047121 
L 925.645791 462.804229 
L 926.115563 470.233351 
L 927.524878 471.338779 
L 927.99465 476.99596 
L 928.934194 478.198934 
L 929.403965 477.3536 
L 930.813281 475.988078 
L 931.752824 473.825989 
L 932.222596 482.149212 
L 932.692367 484.262522 
L 934.571454 479.093022 
L 935.041226 476.963453 
L 935.98077 476.589553 
L 937.390085 474.199889 
L 937.859856 475.077718 
L 938.329628 477.19104 
L 938.7994 475.467877 
L 939.269172 474.34619 
L 940.678487 463.600784 
L 941.148259 469.826944 
L 941.61803 469.566838 
L 942.087802 468.022495 
L 942.557574 467.209681 
L 943.966889 471.241245 
L 944.436661 468.250082 
L 944.906432 471.224986 
L 945.376204 475.727972 
L 945.845976 475.370331 
L 947.255291 471.046166 
L 947.725063 471.712667 
L 948.664606 471.387546 
L 949.134378 474.069836 
L 950.543693 478.215181 
L 950.543693 478.215181 
" clip-path="url(#p9ea4f130d8)" style="fill: none; stroke: #1f77b4; stroke-width: 2.5; stroke-linecap: square"/>
   </g>
   <g id="line2d_26">
    <path d="M 260.918793 511.779541 
L 260.918793 40.877187 
" clip-path="url(#p9ea4f130d8)" style="fill: none; stroke-dasharray: 7.4,3.2; stroke-dashoffset: 0; stroke: #008000; stroke-opacity: 0.8; stroke-width: 2"/>
   </g>
   <g id="line2d_27">
    <path d="M 698.276274 511.779541 
L 698.276274 40.877187 
" clip-path="url(#p9ea4f130d8)" style="fill: none; stroke-dasharray: 7.4,3.2; stroke-dashoffset: 0; stroke: #ff0000; stroke-opacity: 0.8; stroke-width: 2"/>
   </g>
   <g id="patch_4">
    <path d="M 50.836875 511.779541 
L 50.836875 40.877187 
" style="fill: none; stroke: #000000; stroke-width: 0.8; stroke-linejoin: miter; stroke-linecap: square"/>
   </g>
   <g id="patch_5">
    <path d="M 993.386875 511.779541 
L 993.386875 40.877187 
" style="fill: none; stroke: #000000; stroke-width: 0.8; stroke-linejoin: miter; stroke-linecap: square"/>
   </g>
   <g id="patch_6">
    <path d="M 50.836875 511.779541 
L 993.386875 511.779541 
" style="fill: none; stroke: #000000; stroke-width: 0.8; stroke-linejoin: miter; stroke-linecap: square"/>
   </g>
   <g id="patch_7">
    <path d="M 50.836875 40.877187 
L 993.386875 40.877187 
" style="fill: none; stroke: #000000; stroke-width: 0.8; stroke-linejoin: miter; stroke-linecap: square"/>
   </g>
   <g id="text_15">
    <text style="font-weight: 700; font-size: 18px; font-family: 'DejaVu Sans', 'Bitstream Vera Sans', 'Computer Modern Sans Serif', 'Lucida Grande', 'Verdana', 'Geneva', 'Lucid', 'Arial', 'Helvetica', 'Avant Garde', sans-serif; text-anchor: middle" x="522.111875" y="20.877187" transform="rotate(-0 522.111875 20.877187)">My Career Journey at Baidu (2020-2024)</text>
   </g>
   <g id="legend_1">
    <g id="patch_8">
     <path d="M 795.7675 120.932187 
L 984.986875 120.932187 
Q 987.386875 120.932187 987.386875 118.532187 
L 987.386875 49.277187 
Q 987.386875 46.877187 984.986875 46.877187 
L 795.7675 46.877187 
Q 793.3675 46.877187 793.3675 49.277187 
L 793.3675 118.532187 
Q 793.3675 120.932187 795.7675 120.932187 
z
" style="fill: #ffffff; opacity: 0.9; stroke: #cccccc; stroke-linejoin: miter"/>
    </g>
    <g id="line2d_28">
     <path d="M 798.1675 56.595312 
L 810.1675 56.595312 
L 822.1675 56.595312 
" style="fill: none; stroke: #1f77b4; stroke-width: 2.5; stroke-linecap: square"/>
    </g>
    <g id="text_16">
     <text style="font-size: 12px; font-family: 'DejaVu Sans', 'Bitstream Vera Sans', 'Computer Modern Sans Serif', 'Lucida Grande', 'Verdana', 'Geneva', 'Lucid', 'Arial', 'Helvetica', 'Avant Garde', sans-serif; text-anchor: start" x="831.7675" y="60.795312" transform="rotate(-0 831.7675 60.795312)">BIDU Closing Price</text>
    </g>
    <g id="line2d_29">
     <path d="M 798.1675 74.209062 
L 810.1675 74.209062 
L 822.1675 74.209062 
" style="fill: none; stroke-dasharray: 7.4,3.2; stroke-dashoffset: 0; stroke: #008000; stroke-opacity: 0.8; stroke-width: 2"/>
    </g>
    <g id="text_17">
     <text style="font-size: 12px; font-family: 'DejaVu Sans', 'Bitstream Vera Sans', 'Computer Modern Sans Serif', 'Lucida Grande', 'Verdana', 'Geneva', 'Lucid', 'Arial', 'Helvetica', 'Avant Garde', sans-serif; text-anchor: start" x="831.7675" y="78.409062" transform="rotate(-0 831.7675 78.409062)">Career Start: 2020-12-23</text>
    </g>
    <g id="line2d_30">
     <path d="M 798.1675 91.822812 
L 810.1675 91.822812 
L 822.1675 91.822812 
" style="fill: none; stroke-dasharray: 7.4,3.2; stroke-dashoffset: 0; stroke: #ff0000; stroke-opacity: 0.8; stroke-width: 2"/>
    </g>
    <g id="text_18">
     <text style="font-size: 12px; font-family: 'DejaVu Sans', 'Bitstream Vera Sans', 'Computer Modern Sans Serif', 'Lucida Grande', 'Verdana', 'Geneva', 'Lucid', 'Arial', 'Helvetica', 'Avant Garde', sans-serif; text-anchor: start" x="831.7675" y="96.022812" transform="rotate(-0 831.7675 96.022812)">Career End: 2023-07-12</text>
    </g>
    <g id="patch_9">
     <path d="M 798.1675 113.636562 
L 822.1675 113.636562 
L 822.1675 105.236562 
L 798.1675 105.236562 
z
" style="fill: #ffd700; opacity: 0.15; stroke: #ffd700; stroke-linejoin: miter"/>
    </g>
    <g id="text_19">
     <text style="font-size: 12px; font-family: 'DejaVu Sans', 'Bitstream Vera Sans', 'Computer Modern Sans Serif', 'Lucida Grande', 'Verdana', 'Geneva', 'Lucid', 'Arial', 'Helvetica', 'Avant Garde', sans-serif; text-anchor: start" x="831.7675" y="113.636562" transform="rotate(-0 831.7675 113.636562)">Career Period</text>
    </g>
   </g>
  </g>
 </g>
 <defs>
  <clipPath id="p9ea4f130d8">
   <rect x="50.836875" y="40.877187" width="942.55" height="470.902354"/>
  </clipPath>
 </defs>
</svg>
