<?xml version="1.0" encoding="utf-8" standalone="no"?>
<!DOCTYPE svg PUBLIC "-//W3C//DTD SVG 1.1//EN"
  "http://www.w3.org/Graphics/SVG/1.1/DTD/svg11.dtd">
<svg xmlns:xlink="http://www.w3.org/1999/xlink" width="1000.586875pt" height="568.315198pt" viewBox="0 0 1000.586875 568.315198" xmlns="http://www.w3.org/2000/svg" version="1.1">
 <metadata>
  <rdf:RDF xmlns:dc="http://purl.org/dc/elements/1.1/" xmlns:cc="http://creativecommons.org/ns#" xmlns:rdf="http://www.w3.org/1999/02/22-rdf-syntax-ns#">
   <cc:Work>
    <dc:type rdf:resource="http://purl.org/dc/dcmitype/StillImage"/>
    <dc:date>2026-01-05T20:20:46.596759</dc:date>
    <dc:format>image/svg+xml</dc:format>
    <dc:creator>
     <cc:Agent>
      <dc:title>Matplotlib v3.10.8, https://matplotlib.org/</dc:title>
     </cc:Agent>
    </dc:creator>
   </cc:Work>
  </rdf:RDF>
 </metadata>
 <defs>
  <style type="text/css">*{stroke-linejoin: round; stroke-linecap: butt}</style>
 </defs>
 <g id="figure_1">
  <g id="patch_1">
   <path d="M 0 568.315198 
L 1000.586875 568.315198 
L 1000.586875 0 
L 0 0 
z
" style="fill: #ffffff"/>
  </g>
  <g id="axes_1">
   <g id="patch_2">
    <path d="M 50.836875 500.177445 
L 993.386875 500.177445 
L 993.386875 40.8575 
L 50.836875 40.8575 
z
" style="fill: #ffffff"/>
   </g>
   <g id="patch_3">
    <path d="M 243.552726 500.177445 
L 950.543693 500.177445 
L 950.543693 40.8575 
L 243.552726 40.8575 
z
" clip-path="url(#p2de11dc02a)" style="fill: #ffd700; opacity: 0.15; stroke: #ffd700; stroke-linejoin: miter"/>
   </g>
   <g id="matplotlib.axis_1">
    <g id="xtick_1">
     <g id="line2d_1">
      <path d="M 92.110709 500.177445 
L 92.110709 40.8575 
" clip-path="url(#p2de11dc02a)" style="fill: none; stroke: #b0b0b0; stroke-opacity: 0.2; stroke-width: 0.8; stroke-linecap: square"/>
     </g>
     <g id="line2d_2">
      <defs>
       <path id="m157384ebd9" d="M 0 0 
L 0 3.5 
" style="stroke: #000000; stroke-width: 0.8"/>
      </defs>
      <g>
       <use xlink:href="#m157384ebd9" x="92.110709" y="500.177445" style="stroke: #000000; stroke-width: 0.8"/>
      </g>
     </g>
     <g id="text_1">
      <text style="font-size: 10px; font-family: 'DejaVu Sans', 'Bitstream Vera Sans', 'Computer Modern Sans Serif', 'Lucida Grande', 'Verdana', 'Geneva', 'Lucid', 'Arial', 'Helvetica', 'Avant Garde', sans-serif" transform="translate(79.289427 542.095262) rotate(-45)">2023-01</text>
     </g>
    </g>
    <g id="xtick_2">
     <g id="line2d_3">
      <path d="M 186.271549 500.177445 
L 186.271549 40.8575 
" clip-path="url(#p2de11dc02a)" style="fill: none; stroke: #b0b0b0; stroke-opacity: 0.2; stroke-width: 0.8; stroke-linecap: square"/>
     </g>
     <g id="line2d_4">
      <g>
       <use xlink:href="#m157384ebd9" x="186.271549" y="500.177445" style="stroke: #000000; stroke-width: 0.8"/>
      </g>
     </g>
     <g id="text_2">
      <text style="font-size: 10px; font-family: 'DejaVu Sans', 'Bitstream Vera Sans', 'Computer Modern Sans Serif', 'Lucida Grande', 'Verdana', 'Geneva', 'Lucid', 'Arial', 'Helvetica', 'Avant Garde', sans-serif" transform="translate(173.450266 542.095262) rotate(-45)">2023-05</text>
     </g>
    </g>
    <g id="xtick_3">
     <g id="line2d_5">
      <path d="M 282.786409 500.177445 
L 282.786409 40.8575 
" clip-path="url(#p2de11dc02a)" style="fill: none; stroke: #b0b0b0; stroke-opacity: 0.2; stroke-width: 0.8; stroke-linecap: square"/>
     </g>
     <g id="line2d_6">
      <g>
       <use xlink:href="#m157384ebd9" x="282.786409" y="500.177445" style="stroke: #000000; stroke-width: 0.8"/>
      </g>
     </g>
     <g id="text_3">
      <text style="font-size: 10px; font-family: 'DejaVu Sans', 'Bitstream Vera Sans', 'Computer Modern Sans Serif', 'Lucida Grande', 'Verdana', 'Geneva', 'Lucid', 'Arial', 'Helvetica', 'Avant Garde', sans-serif" transform="translate(269.965127 542.095262) rotate(-45)">2023-09</text>
     </g>
    </g>
    <g id="xtick_4">
     <g id="line2d_7">
      <path d="M 378.516595 500.177445 
L 378.516595 40.8575 
" clip-path="url(#p2de11dc02a)" style="fill: none; stroke: #b0b0b0; stroke-opacity: 0.2; stroke-width: 0.8; stroke-linecap: square"/>
     </g>
     <g id="line2d_8">
      <g>
       <use xlink:href="#m157384ebd9" x="378.516595" y="500.177445" style="stroke: #000000; stroke-width: 0.8"/>
      </g>
     </g>
     <g id="text_4">
      <text style="font-size: 10px; font-family: 'DejaVu Sans', 'Bitstream Vera Sans', 'Computer Modern Sans Serif', 'Lucida Grande', 'Verdana', 'Geneva', 'Lucid', 'Arial', 'Helvetica', 'Avant Garde', sans-serif" transform="translate(365.695313 542.095262) rotate(-45)">2024-01</text>
     </g>
    </g>
    <g id="xtick_5">
     <g id="line2d_9">
      <path d="M 473.462108 500.177445 
L 473.462108 40.8575 
" clip-path="url(#p2de11dc02a)" style="fill: none; stroke: #b0b0b0; stroke-opacity: 0.2; stroke-width: 0.8; stroke-linecap: square"/>
     </g>
     <g id="line2d_10">
      <g>
       <use xlink:href="#m157384ebd9" x="473.462108" y="500.177445" style="stroke: #000000; stroke-width: 0.8"/>
      </g>
     </g>
     <g id="text_5">
      <text style="font-size: 10px; font-family: 'DejaVu Sans', 'Bitstream Vera Sans', 'Computer Modern Sans Serif', 'Lucida Grande', 'Verdana', 'Geneva', 'Lucid', 'Arial', 'Helvetica', 'Avant Garde', sans-serif" transform="translate(460.640826 542.095262) rotate(-45)">2024-05</text>
     </g>
    </g>
    <g id="xtick_6">
     <g id="line2d_11">
      <path d="M 569.976968 500.177445 
L 569.976968 40.8575 
" clip-path="url(#p2de11dc02a)" style="fill: none; stroke: #b0b0b0; stroke-opacity: 0.2; stroke-width: 0.8; stroke-linecap: square"/>
     </g>
     <g id="line2d_12">
      <g>
       <use xlink:href="#m157384ebd9" x="569.976968" y="500.177445" style="stroke: #000000; stroke-width: 0.8"/>
      </g>
     </g>
     <g id="text_6">
      <text style="font-size: 10px; font-family: 'DejaVu Sans', 'Bitstream Vera Sans', 'Computer Modern Sans Serif', 'Lucida Grande', 'Verdana', 'Geneva', 'Lucid', 'Arial', 'Helvetica', 'Avant Garde', sans-serif" transform="translate(557.155686 542.095262) rotate(-45)">2024-09</text>
     </g>
    </g>
    <g id="xtick_7">
     <g id="line2d_13">
      <path d="M 665.707155 500.177445 
L 665.707155 40.8575 
" clip-path="url(#p2de11dc02a)" style="fill: none; stroke: #b0b0b0; stroke-opacity: 0.2; stroke-width: 0.8; stroke-linecap: square"/>
     </g>
     <g id="line2d_14">
      <g>
       <use xlink:href="#m157384ebd9" x="665.707155" y="500.177445" style="stroke: #000000; stroke-width: 0.8"/>
      </g>
     </g>
     <g id="text_7">
      <text style="font-size: 10px; font-family: 'DejaVu Sans', 'Bitstream Vera Sans', 'Computer Modern Sans Serif', 'Lucida Grande', 'Verdana', 'Geneva', 'Lucid', 'Arial', 'Helvetica', 'Avant Garde', sans-serif" transform="translate(652.885872 542.095262) rotate(-45)">2025-01</text>
     </g>
    </g>
    <g id="xtick_8">
     <g id="line2d_15">
      <path d="M 759.867994 500.177445 
L 759.867994 40.8575 
" clip-path="url(#p2de11dc02a)" style="fill: none; stroke: #b0b0b0; stroke-opacity: 0.2; stroke-width: 0.8; stroke-linecap: square"/>
     </g>
     <g id="line2d_16">
      <g>
       <use xlink:href="#m157384ebd9" x="759.867994" y="500.177445" style="stroke: #000000; stroke-width: 0.8"/>
      </g>
     </g>
     <g id="text_8">
      <text style="font-size: 10px; font-family: 'DejaVu Sans', 'Bitstream Vera Sans', 'Computer Modern Sans Serif', 'Lucida Grande', 'Verdana', 'Geneva', 'Lucid', 'Arial', 'Helvetica', 'Avant Garde', sans-serif" transform="translate(747.046712 542.095262) rotate(-45)">2025-05</text>
     </g>
    </g>
    <g id="xtick_9">
     <g id="line2d_17">
      <path d="M 856.382854 500.177445 
L 856.382854 40.8575 
" clip-path="url(#p2de11dc02a)" style="fill: none; stroke: #b0b0b0; stroke-opacity: 0.2; stroke-width: 0.8; stroke-linecap: square"/>
     </g>
     <g id="line2d_18">
      <g>
       <use xlink:href="#m157384ebd9" x="856.382854" y="500.177445" style="stroke: #000000; stroke-width: 0.8"/>
      </g>
     </g>
     <g id="text_9">
      <text style="font-size: 10px; font-family: 'DejaVu Sans', 'Bitstream Vera Sans', 'Computer Modern Sans Serif', 'Lucida Grande', 'Verdana', 'Geneva', 'Lucid', 'Arial', 'Helvetica', 'Avant Garde', sans-serif" transform="translate(843.561572 542.095262) rotate(-45)">2025-09</text>
     </g>
    </g>
    <g id="xtick_10">
     <g id="line2d_19">
      <path d="M 952.113041 500.177445 
L 952.113041 40.8575 
" clip-path="url(#p2de11dc02a)" style="fill: none; stroke: #b0b0b0; stroke-opacity: 0.2; stroke-width: 0.8; stroke-linecap: square"/>
     </g>
     <g id="line2d_20">
      <g>
       <use xlink:href="#m157384ebd9" x="952.113041" y="500.177445" style="stroke: #000000; stroke-width: 0.8"/>
      </g>
     </g>
     <g id="text_10">
      <text style="font-size: 10px; font-family: 'DejaVu Sans', 'Bitstream Vera Sans', 'Computer Modern Sans Serif', 'Lucida Grande', 'Verdana', 'Geneva', 'Lucid', 'Arial', 'Helvetica', 'Avant Garde', sans-serif" transform="translate(939.291758 542.095262) rotate(-45)">2026-01</text>
     </g>
    </g>
    <g id="text_11">
     <text style="font-size: 14px; font-family: 'DejaVu Sans', 'Bitstream Vera Sans', 'Computer Modern Sans Serif', 'Lucida Grande', 'Verdana', 'Geneva', 'Lucid', 'Arial', 'Helvetica', 'Avant Garde', sans-serif; text-anchor: middle" x="522.111875" y="558.203635" transform="rotate(-0 522.111875 558.203635)">Date</text>
    </g>
   </g>
   <g id="matplotlib.axis_2">
    <g id="ytick_1">
     <g id="line2d_21">
      <path d="M 50.836875 437.228963 
L 993.386875 437.228963 
" clip-path="url(#p2de11dc02a)" style="fill: none; stroke: #b0b0b0; stroke-opacity: 0.2; stroke-width: 0.8; stroke-linecap: square"/>
     </g>
     <g id="line2d_22">
      <defs>
       <path id="m2a5b1d3238" d="M 0 0 
L -3.5 0 
" style="stroke: #000000; stroke-width: 0.8"/>
      </defs>
      <g>
       <use xlink:href="#m2a5b1d3238" x="50.836875" y="437.228963" style="stroke: #000000; stroke-width: 0.8"/>
      </g>
     </g>
     <g id="text_12">
      <text style="font-size: 10px; font-family: 'DejaVu Sans', 'Bitstream Vera Sans', 'Computer Modern Sans Serif', 'Lucida Grande', 'Verdana', 'Geneva', 'Lucid', 'Arial', 'Helvetica', 'Avant Garde', sans-serif; text-anchor: end" x="43.836875" y="441.028182" transform="rotate(-0 43.836875 441.028182)">300</text>
     </g>
    </g>
    <g id="ytick_2">
     <g id="line2d_23">
      <path d="M 50.836875 337.760543 
L 993.386875 337.760543 
" clip-path="url(#p2de11dc02a)" style="fill: none; stroke: #b0b0b0; stroke-opacity: 0.2; stroke-width: 0.8; stroke-linecap: square"/>
     </g>
     <g id="line2d_24">
      <g>
       <use xlink:href="#m2a5b1d3238" x="50.836875" y="337.760543" style="stroke: #000000; stroke-width: 0.8"/>
      </g>
     </g>
     <g id="text_13">
      <text style="font-size: 10px; font-family: 'DejaVu Sans', 'Bitstream Vera Sans', 'Computer Modern Sans Serif', 'Lucida Grande', 'Verdana', 'Geneva', 'Lucid', 'Arial', 'Helvetica', 'Avant Garde', sans-serif; text-anchor: end" x="43.836875" y="341.559762" transform="rotate(-0 43.836875 341.559762)">400</text>
     </g>
    </g>
    <g id="ytick_3">
     <g id="line2d_25">
      <path d="M 50.836875 238.292124 
L 993.386875 238.292124 
" clip-path="url(#p2de11dc02a)" style="fill: none; stroke: #b0b0b0; stroke-opacity: 0.2; stroke-width: 0.8; stroke-linecap: square"/>
     </g>
     <g id="line2d_26">
      <g>
       <use xlink:href="#m2a5b1d3238" x="50.836875" y="238.292124" style="stroke: #000000; stroke-width: 0.8"/>
      </g>
     </g>
     <g id="text_14">
      <text style="font-size: 10px; font-family: 'DejaVu Sans', 'Bitstream Vera Sans', 'Computer Modern Sans Serif', 'Lucida Grande', 'Verdana', 'Geneva', 'Lucid', 'Arial', 'Helvetica', 'Avant Garde', sans-serif; text-anchor: end" x="43.836875" y="242.091343" transform="rotate(-0 43.836875 242.091343)">500</text>
     </g>
    </g>
    <g id="ytick_4">
     <g id="line2d_27">
      <path d="M 50.836875 138.823704 
L 993.386875 138.823704 
" clip-path="url(#p2de11dc02a)" style="fill: none; stroke: #b0b0b0; stroke-opacity: 0.2; stroke-width: 0.8; stroke-linecap: square"/>
     </g>
     <g id="line2d_28">
      <g>
       <use xlink:href="#m2a5b1d3238" x="50.836875" y="138.823704" style="stroke: #000000; stroke-width: 0.8"/>
      </g>
     </g>
     <g id="text_15">
      <text style="font-size: 10px; font-family: 'DejaVu Sans', 'Bitstream Vera Sans', 'Computer Modern Sans Serif', 'Lucida Grande', 'Verdana', 'Geneva', 'Lucid', 'Arial', 'Helvetica', 'Avant Garde', sans-serif; text-anchor: end" x="43.836875" y="142.622923" transform="rotate(-0 43.836875 142.622923)">600</text>
     </g>
    </g>
    <g id="text_16">
     <text style="font-size: 14px; font-family: 'DejaVu Sans', 'Bitstream Vera Sans', 'Computer Modern Sans Serif', 'Lucida Grande', 'Verdana', 'Geneva', 'Lucid', 'Arial', 'Helvetica', 'Avant Garde', sans-serif; text-anchor: middle" x="17.837813" y="270.517472" transform="rotate(-90 17.837813 270.517472)">Price (HKD)</text>
    </g>
   </g>
   <g id="line2d_29">
    <path d="M 93.680057 417.368427 
L 94.46473 402.801197 
L 95.249404 398.015584 
L 96.034078 396.462453 
L 98.388099 384.231279 
L 99.172772 383.842974 
L 99.957446 372.776717 
L 100.74212 382.289812 
L 101.526793 375.10643 
L 103.880814 376.271286 
L 104.665488 372.776717 
L 105.450162 366.758192 
L 106.234835 364.040174 
L 107.019509 355.3036 
L 111.727551 340.742714 
L 112.512225 332.782782 
L 114.866246 359.768963 
L 115.650919 364.622602 
L 116.435593 361.904584 
L 117.220267 363.846021 
L 118.00494 361.904584 
L 120.358961 369.864516 
L 121.143635 366.758192 
L 121.928309 364.622602 
L 122.712982 351.614878 
L 123.497656 363.457746 
L 125.851677 360.351422 
L 126.636351 368.117201 
L 127.421024 369.670363 
L 128.205698 364.234296 
L 128.990372 372.776717 
L 131.344392 369.670363 
L 132.129066 384.425402 
L 132.91374 390.055622 
L 133.698413 390.055622 
L 134.483087 396.462453 
L 136.837108 396.462453 
L 137.621782 402.092612 
L 138.406455 377.630356 
L 139.191129 383.454729 
L 139.975803 378.795213 
L 142.329824 383.260515 
L 143.114497 389.084888 
L 143.899171 396.26827 
L 145.468518 413.741357 
L 147.822539 400.927755 
L 148.607213 404.034079 
L 149.391887 401.121908 
L 150.17656 409.470146 
L 150.961234 406.1697 
L 153.315255 410.635063 
L 154.099929 402.092612 
L 154.884602 398.598012 
L 155.669276 371.029372 
L 156.45395 369.864516 
L 158.807971 383.454729 
L 159.592644 368.505507 
L 160.377318 362.098706 
L 161.161992 361.904584 
L 164.300686 358.798229 
L 165.08536 361.904584 
L 166.654707 361.516278 
L 170.578075 370.058669 
L 171.362749 388.890765 
L 172.147423 383.066393 
L 172.932096 380.930803 
L 175.286117 375.494736 
L 176.070791 380.930803 
L 176.855465 388.890765 
L 177.640138 389.084888 
L 178.424812 396.656545 
L 180.778833 400.733603 
L 181.563507 407.140403 
L 182.34818 397.627309 
L 183.132854 400.733603 
L 183.917528 401.316061 
L 187.056222 399.957052 
L 187.840896 406.1697 
L 188.62557 407.722831 
L 189.410243 402.869193 
L 191.764264 404.81066 
L 192.548938 416.847681 
L 193.333612 415.682794 
L 194.118285 418.789148 
L 194.902959 417.041803 
L 198.041654 400.927755 
L 198.826327 402.869193 
L 199.611001 405.781425 
L 200.395675 409.887441 
L 202.749696 403.044009 
L 203.534369 407.541124 
L 204.319043 410.669547 
L 205.103716 420.445853 
L 208.242411 429.440083 
L 209.027085 426.507149 
L 209.811758 431.981888 
L 210.596432 427.289285 
L 211.381106 408.909817 
L 213.735127 404.999289 
L 214.5198 411.84269 
L 215.304474 407.541124 
L 216.089148 408.32326 
L 216.873821 407.150087 
L 219.227842 404.80377 
L 220.012516 398.546924 
L 220.79719 397.764788 
L 221.581863 388.5751 
L 222.366537 380.754013 
L 224.720558 386.424302 
L 225.505232 393.463222 
L 226.289905 402.848521 
L 227.859253 406.172462 
L 230.213274 410.278509 
L 230.997947 401.870866 
L 231.782621 406.954538 
L 232.567295 409.496373 
L 233.351968 411.451653 
L 235.705989 405.194807 
L 236.490663 404.021634 
L 237.275337 407.736674 
L 238.06001 416.144287 
L 238.844684 416.339805 
L 241.198705 414.189038 
L 241.983378 409.300885 
L 242.768052 403.239528 
L 243.552726 393.658772 
L 244.337399 390.921387 
L 247.476094 406.759019 
L 248.260768 410.08296 
L 249.045441 410.278509 
L 249.830115 410.08296 
L 252.184136 417.904017 
L 252.96881 398.351375 
L 253.753483 402.261934 
L 254.538157 399.524579 
L 255.322831 393.072185 
L 257.676852 389.161687 
L 258.461525 389.552694 
L 259.246199 399.915587 
L 260.030873 401.08876 
L 260.815546 399.915587 
L 263.169567 402.066385 
L 263.954241 408.32326 
L 265.523588 403.435108 
L 266.308262 407.345606 
L 268.662283 409.887441 
L 269.446957 410.474028 
L 270.23163 414.189038 
L 271.016304 410.278509 
L 271.800978 417.904017 
L 274.154999 424.747449 
L 274.939672 423.769794 
L 275.724346 424.747449 
L 276.50902 417.708468 
L 277.293693 422.79217 
L 279.647714 417.708468 
L 280.432388 413.60242 
L 281.217061 417.121941 
L 282.001735 417.904017 
L 285.14043 409.691922 
L 285.925103 413.993488 
L 286.709777 415.362181 
L 287.494451 421.227958 
L 290.633145 418.881641 
L 292.202493 422.596651 
L 292.987166 422.987719 
L 293.77184 425.529524 
L 296.125861 430.417677 
L 296.910535 430.222188 
L 297.695208 433.350581 
L 298.479882 439.411907 
L 299.264556 429.049015 
L 301.618577 438.043215 
L 302.40325 442.344811 
L 303.187924 440.389562 
L 303.972598 444.886647 
L 304.757271 436.283485 
L 307.895966 441.758224 
L 308.68064 444.691128 
L 309.465313 442.54036 
L 310.249987 437.261109 
L 312.604008 435.501379 
L 313.388682 434.328236 
L 314.173355 431.590881 
L 314.958029 426.116111 
L 315.742703 435.696928 
L 318.096723 441.171637 
L 318.881397 440.193983 
L 319.666071 442.344811 
L 320.450744 450.947943 
L 321.235418 453.098741 
L 324.374113 458.964549 
L 325.158786 454.271915 
L 325.94346 454.467434 
L 326.728134 449.383762 
L 329.082155 446.841926 
L 329.866828 452.903222 
L 330.651502 455.05402 
L 331.436176 453.489809 
L 332.220849 439.802975 
L 334.57487 430.026639 
L 335.359544 433.937168 
L 336.144218 434.132686 
L 336.928891 435.696928 
L 337.713565 439.607426 
L 340.067586 432.764024 
L 340.85226 434.719273 
L 341.636933 420.250334 
L 342.421607 418.099566 
L 343.206281 427.484803 
L 345.560302 416.339805 
L 346.344975 418.099566 
L 347.129649 418.490604 
L 347.914323 413.79797 
L 348.698996 421.618996 
L 351.053017 420.054815 
L 351.837691 423.183207 
L 352.622365 425.725073 
L 353.407038 415.948768 
L 354.191712 423.769794 
L 356.545733 425.920592 
L 357.330406 433.741649 
L 358.11508 431.004264 
L 358.899754 434.719273 
L 359.684427 436.870041 
L 362.038448 435.30583 
L 362.823122 431.199813 
L 363.607796 435.501379 
L 364.392469 436.087966 
L 365.177143 428.266909 
L 367.531164 431.004264 
L 368.315838 430.808775 
L 369.100511 428.462428 
L 369.885185 430.026639 
L 370.669859 467.76323 
L 374.593227 457.009269 
L 375.377901 449.188243 
L 376.162574 448.601656 
L 379.301269 445.668722 
L 380.085943 441.758224 
L 380.870616 443.517954 
L 381.65529 449.970318 
L 384.009311 454.076396 
L 384.793985 458.377962 
L 385.578658 461.701903 
L 386.363332 454.662983 
L 387.148006 453.685328 
L 389.502027 452.707703 
L 391.071374 467.176643 
L 391.856047 464.24377 
L 392.640721 470.500584 
L 394.994742 479.299266 
L 397.348763 451.339041 
L 398.133437 459.160068 
L 400.487458 459.942173 
L 401.272131 467.958749 
L 402.056805 471.087171 
L 402.841479 470.109516 
L 403.626152 462.484009 
L 405.980173 462.28849 
L 406.764847 451.339041 
L 407.549521 449.970318 
L 408.334194 454.858471 
L 409.118868 454.858471 
L 413.042236 452.121117 
L 413.82691 456.618201 
L 414.611584 450.361386 
L 416.965605 457.204819 
L 417.750278 457.791375 
L 418.534952 453.29429 
L 419.319626 450.752454 
L 420.104299 451.339041 
L 422.45832 454.858471 
L 423.242994 457.400337 
L 424.027668 464.830326 
L 425.597015 464.439288 
L 427.951036 465.612432 
L 428.735709 473.433458 
L 429.520383 467.176643 
L 430.305057 470.696103 
L 431.08973 471.673728 
L 433.443751 463.266115 
L 434.228425 451.339041 
L 435.013099 451.53453 
L 435.797772 452.903222 
L 436.582446 458.182443 
L 438.936467 452.316666 
L 439.721141 457.009269 
L 440.505814 453.29429 
L 441.290488 450.947943 
L 442.075162 453.29429 
L 444.429183 453.489809 
L 445.213856 442.931368 
L 445.99853 440.389562 
L 446.783204 438.629802 
L 450.706572 433.350581 
L 451.491246 434.132686 
L 453.060593 432.568475 
L 455.414614 437.065621 
L 456.199288 437.456628 
L 456.983961 428.462428 
L 457.768635 427.680322 
L 458.553309 432.959543 
L 460.90733 438.043215 
L 461.692003 440.585081 
L 462.476677 441.562705 
L 463.261351 438.043215 
L 464.046024 438.629802 
L 466.400045 422.401132 
L 467.969392 399.133481 
L 468.754066 403.826145 
L 469.53874 395.027434 
L 471.892761 395.809539 
L 472.677434 396.200607 
L 474.246782 383.295879 
L 475.031455 379.385351 
L 477.385476 373.715062 
L 478.954824 382.318255 
L 479.739497 374.10616 
L 480.524171 372.932987 
L 482.878192 365.894036 
L 483.662866 362.374545 
L 485.232213 347.514568 
L 486.016887 346.134067 
L 488.370908 346.134067 
L 489.155581 357.375322 
L 489.940255 356.586478 
L 490.724929 359.15026 
L 491.509602 363.883419 
L 493.863623 363.489012 
L 494.648297 360.72798 
L 495.432971 369.799889 
L 496.217644 372.75811 
L 497.002318 380.843956 
L 499.356339 365.855576 
L 500.141013 363.489012 
L 500.925686 360.136354 
L 501.71036 359.347479 
L 502.495034 366.052794 
L 505.633728 367.038888 
L 506.418402 369.997108 
L 507.203075 361.122417 
L 507.987749 361.122417 
L 510.34177 359.741886 
L 511.126444 363.883419 
L 511.911117 352.050508 
L 512.695791 353.431008 
L 513.480465 359.544698 
L 515.834486 360.530761 
L 516.619159 358.953042 
L 517.403833 358.953042 
L 518.188507 366.447232 
L 518.97318 368.419389 
L 522.111875 371.574797 
L 522.896549 361.516855 
L 523.681222 358.558635 
L 524.465896 361.122417 
L 526.819917 362.305699 
L 527.604591 359.939135 
L 528.389264 363.291763 
L 529.173938 356.19204 
L 529.958612 344.16191 
L 532.312633 350.867195 
L 533.097306 362.897355 
L 533.88198 369.011045 
L 534.666654 371.574797 
L 535.451327 376.702423 
L 537.805348 367.630514 
L 538.590022 374.533048 
L 539.374696 377.491268 
L 540.159369 389.324179 
L 540.944043 386.168771 
L 543.298064 382.421645 
L 544.082737 386.957615 
L 544.867411 378.477331 
L 545.652085 375.124704 
L 546.436758 382.421645 
L 548.790779 383.999365 
L 549.575453 386.168771 
L 550.360127 377.29408 
L 551.1448 372.560891 
L 551.929474 370.785953 
L 554.283495 365.855576 
L 555.068169 362.305699 
L 556.637516 372.363703 
L 557.42219 368.22217 
L 559.776211 368.22217 
L 560.560884 370.391546 
L 561.345558 369.208233 
L 562.130232 363.094574 
L 562.914905 365.263919 
L 565.268926 358.953042 
L 566.0536 359.15026 
L 566.838274 366.64442 
L 567.622947 363.291763 
L 568.407621 358.953042 
L 570.761642 363.094574 
L 571.546316 362.700137 
L 572.330989 368.024951 
L 573.115663 367.433295 
L 576.254358 369.602671 
L 577.039031 372.166453 
L 577.823705 370.588734 
L 579.393052 366.052794 
L 581.747073 363.094574 
L 582.531747 360.925199 
L 584.101094 352.247726 
L 584.885768 352.444945 
L 587.239789 353.431008 
L 588.024462 339.034284 
L 588.809136 335.878876 
L 589.59381 311.621367 
L 590.378483 303.929988 
L 592.732504 297.224643 
L 594.301852 272.17832 
L 595.086525 275.925415 
L 595.871199 264.68413 
L 598.22522 263.895285 
L 599.009894 303.141114 
L 599.794567 307.479834 
L 600.579241 302.943925 
L 603.717936 305.704927 
L 604.502609 324.440372 
L 605.287283 325.623684 
L 606.071957 328.779093 
L 606.85663 310.832522 
L 609.210651 320.496058 
L 609.995325 319.904402 
L 610.779999 313.396305 
L 611.564672 319.509995 
L 612.349346 320.496058 
L 614.703367 324.243153 
L 615.488041 323.059871 
L 617.057388 336.66772 
L 617.842061 322.270996 
L 620.196082 322.468215 
L 620.980756 313.790773 
L 621.76543 321.67937 
L 622.550103 313.199117 
L 623.334777 320.693307 
L 625.688798 328.187436 
L 626.473472 337.456595 
L 627.258145 337.456595 
L 628.042819 337.851002 
L 628.827493 340.217597 
L 631.181514 337.062127 
L 631.966187 335.08997 
L 632.750861 330.554061 
L 633.535535 333.70947 
L 634.320208 340.612004 
L 636.674229 345.936818 
L 637.458903 347.317349 
L 638.243577 338.442658 
L 639.02825 341.20366 
L 639.812924 343.175817 
L 642.166945 341.400909 
L 642.951619 336.864939 
L 643.736292 338.048221 
L 644.520966 336.076064 
L 645.30564 328.779093 
L 647.659661 322.665434 
L 648.444334 330.159593 
L 649.229008 331.540124 
L 650.013682 325.820872 
L 650.798355 331.540124 
L 653.152376 335.681627 
L 653.93705 338.639877 
L 654.721723 335.28722 
L 655.506397 326.21531 
L 656.291071 315.171274 
L 658.645092 321.284902 
L 659.429765 321.482152 
L 661.783786 324.045934 
L 664.137807 322.468215 
L 664.922481 321.67937 
L 667.276502 327.201373 
L 669.630523 331.934562 
L 670.415197 361.319636 
L 671.19987 371.574797 
L 671.984544 367.433295 
L 672.769218 371.18039 
L 675.123239 374.730267 
L 675.907912 365.855576 
L 676.692586 360.925199 
L 677.47726 358.558635 
L 678.261933 361.122417 
L 680.615954 351.261663 
L 681.400628 353.628227 
L 682.185302 357.572541 
L 682.969975 359.741886 
L 683.754649 350.472788 
L 686.10867 345.542411 
L 686.893344 339.231503 
L 691.601385 337.062127 
L 692.386059 320.693307 
L 693.170733 323.651527 
L 693.955406 321.087714 
L 694.74008 313.396305 
L 697.094101 304.718833 
L 697.878775 314.18518 
L 698.663448 297.61908 
L 699.448122 299.788456 
L 700.232796 267.445162 
L 702.586817 248.906905 
L 703.37149 239.144775 
L 704.156164 244.765403 
L 704.940838 255.612251 
L 705.725511 225.832709 
L 708.079532 245.357029 
L 708.864206 257.584407 
L 709.64888 241.116932 
L 710.433553 247.131997 
L 711.218227 263.698067 
L 713.572248 259.162097 
L 714.356922 251.470718 
L 715.141595 237.172618 
L 715.926269 199.208697 
L 716.710943 209.562482 
L 719.064964 226.325801 
L 719.849637 225.339677 
L 720.634311 230.763116 
L 721.418985 235.200462 
L 722.203658 221.395363 
L 724.557679 218.437173 
L 725.342353 202.166887 
L 726.127027 203.15295 
L 726.9117 223.36755 
L 727.696374 231.256148 
L 730.050395 229.777053 
L 730.835068 240.62387 
L 731.619742 236.186525 
L 732.404416 233.721336 
L 733.189089 233.228305 
L 735.54311 245.554247 
L 736.327784 238.651713 
L 737.112458 238.651713 
L 737.897131 244.765403 
L 741.035826 306.296583 
L 741.8205 301.366206 
L 742.605173 300.577301 
L 743.389847 297.027455 
L 744.174521 298.407955 
L 746.528542 287.955545 
L 747.313215 285.983388 
L 748.097889 293.872016 
L 748.882563 284.011231 
L 752.805931 281.644667 
L 753.590605 268.036787 
L 754.375278 271.192257 
L 755.159952 264.092474 
L 757.513973 264.092474 
L 758.298647 269.2201 
L 759.08332 265.078567 
L 760.652668 254.626187 
L 763.791362 247.131997 
L 764.576036 252.65403 
L 765.360709 244.568184 
L 766.145383 247.920842 
L 768.499404 225.339677 
L 769.284078 236.679587 
L 770.068751 221.888456 
L 770.853425 222.874519 
L 771.638099 230.33465 
L 773.99212 224.366545 
L 774.776793 221.382493 
L 775.561467 217.901098 
L 776.346141 221.879835 
L 777.130814 220.387808 
L 779.484835 228.345282 
L 780.269509 226.355914 
L 781.054183 232.324019 
L 781.838856 227.84794 
L 782.62353 240.082543 
L 784.977551 239.883625 
L 786.546898 226.355914 
L 787.331572 223.371861 
L 788.116246 223.371861 
L 790.470267 220.387808 
L 791.25494 224.863887 
L 792.039614 220.387808 
L 792.824288 228.345282 
L 793.608961 228.345282 
L 795.962982 228.842624 
L 796.747656 224.863887 
L 797.53233 230.33465 
L 798.317003 240.281492 
L 799.101677 232.821361 
L 801.455698 234.313387 
L 802.240372 228.842624 
L 803.025045 225.858571 
L 803.809719 225.361229 
L 804.594392 225.361229 
L 806.948413 235.308071 
L 808.517761 236.800098 
L 809.302434 237.29744 
L 810.087108 241.475125 
L 812.441129 236.302755 
L 813.225803 233.816045 
L 814.010476 240.67936 
L 814.79515 241.674044 
L 815.579824 241.674044 
L 817.933845 238.292124 
L 818.718518 220.88515 
L 819.503192 221.879835 
L 820.287866 221.382493 
L 821.072539 219.393124 
L 823.42656 216.906414 
L 824.211234 212.430335 
L 824.995908 186.568546 
L 825.780581 181.595125 
L 826.565255 188.060572 
L 828.919276 183.087151 
L 829.70395 183.584493 
L 830.488623 189.552598 
L 831.273297 188.557914 
L 832.057971 203.478177 
L 834.411992 188.557914 
L 835.981339 170.156257 
L 836.766013 171.648283 
L 837.550686 177.616388 
L 839.904707 177.616388 
L 840.689381 179.108414 
L 841.474054 152.749283 
L 842.258728 148.770546 
L 843.043402 146.781178 
L 845.397423 151.754599 
L 846.182096 146.283836 
L 846.96677 148.273204 
L 847.751444 145.786494 
L 848.536117 138.823704 
L 850.890138 124.400784 
L 851.674812 129.374205 
L 852.459486 139.818389 
L 853.244159 144.79181 
L 854.028833 142.305099 
L 856.382854 133.850283 
L 857.167528 138.326362 
L 857.952201 140.315731 
L 858.736875 146.283836 
L 859.521549 133.352941 
L 861.87557 121.416731 
L 862.660243 111.967231 
L 863.444917 105.501784 
L 864.229591 109.480521 
L 865.014264 95.554942 
L 867.368285 95.554942 
L 868.152959 94.062916 
L 868.937633 77.650626 
L 869.722306 97.046968 
L 870.50698 96.549626 
L 872.861001 98.041652 
L 873.645675 103.512415 
L 874.430348 90.581521 
L 875.215022 89.089495 
L 875.999696 95.0576 
L 878.353716 79.142653 
L 879.13839 76.1586 
L 880.707737 62.730364 
L 881.492411 65.714416 
L 883.846432 61.735679 
L 885.415779 64.22239 
L 886.200453 63.725048 
L 886.985127 87.597468 
L 889.339148 100.031021 
L 890.123821 117.935336 
L 890.908495 111.967231 
L 891.693169 118.93002 
L 892.477842 130.866231 
L 894.831863 111.469889 
L 895.616537 108.485836 
L 896.401211 115.448626 
L 897.185884 105.999126 
L 897.970558 101.523047 
L 900.324579 83.121389 
L 901.109253 94.062916 
L 902.6786 88.09481 
L 903.463274 109.977863 
L 905.817295 110.972547 
L 906.601968 109.977863 
L 907.386642 109.977863 
L 908.171316 95.0576 
L 908.955989 105.004442 
L 911.31001 89.586837 
L 912.094684 89.089495 
L 912.879358 82.126705 
L 913.664031 83.121389 
L 914.448705 98.041652 
L 916.802726 102.517731 
L 917.587399 115.448626 
L 918.372073 116.44331 
L 919.156747 117.935336 
L 919.94142 128.876862 
L 922.295441 114.453942 
L 923.080115 113.9566 
L 923.864789 119.427363 
L 924.649462 127.384836 
L 925.434136 127.384836 
L 927.788157 119.427363 
L 928.572831 121.914073 
L 929.357504 127.882178 
L 930.142178 126.887494 
L 930.926852 128.876862 
L 933.280873 133.850283 
L 934.065546 136.336994 
L 934.85022 135.839652 
L 935.634894 137.331678 
L 936.419567 122.908757 
L 938.773588 135.839652 
L 939.558262 142.305099 
L 940.342936 133.850283 
L 941.127609 133.850283 
L 941.912283 124.898126 
L 944.266304 124.400784 
L 945.050978 136.834336 
L 945.835651 136.336994 
L 949.75902 142.305099 
L 950.543693 138.823704 
L 950.543693 138.823704 
" clip-path="url(#p2de11dc02a)" style="fill: none; stroke: #1f77b4; stroke-width: 2.5; stroke-linecap: square"/>
   </g>
   <g id="line2d_30">
    <path d="M 243.552726 500.177445 
L 243.552726 40.8575 
" clip-path="url(#p2de11dc02a)" style="fill: none; stroke-dasharray: 7.4,3.2; stroke-dashoffset: 0; stroke: #008000; stroke-opacity: 0.8; stroke-width: 2"/>
   </g>
   <g id="patch_4">
    <path d="M 50.836875 500.177445 
L 50.836875 40.8575 
" style="fill: none; stroke: #000000; stroke-width: 0.8; stroke-linejoin: miter; stroke-linecap: square"/>
   </g>
   <g id="patch_5">
    <path d="M 993.386875 500.177445 
L 993.386875 40.8575 
" style="fill: none; stroke: #000000; stroke-width: 0.8; stroke-linejoin: miter; stroke-linecap: square"/>
   </g>
   <g id="patch_6">
    <path d="M 50.836875 500.177445 
L 993.386875 500.177445 
" style="fill: none; stroke: #000000; stroke-width: 0.8; stroke-linejoin: miter; stroke-linecap: square"/>
   </g>
   <g id="patch_7">
    <path d="M 50.836875 40.8575 
L 993.386875 40.8575 
" style="fill: none; stroke: #000000; stroke-width: 0.8; stroke-linejoin: miter; stroke-linecap: square"/>
   </g>
   <g id="text_17">
    <text style="font-weight: 700; font-size: 18px; font-family: 'DejaVu Sans', 'Bitstream Vera Sans', 'Computer Modern Sans Serif', 'Lucida Grande', 'Verdana', 'Geneva', 'Lucid', 'Arial', 'Helvetica', 'Avant Garde', sans-serif; text-anchor: middle" x="522.111875" y="20.8575" transform="rotate(-0 522.111875 20.8575)">My Career Journey at Tencent (2023-2025)</text>
   </g>
   <g id="legend_1">
    <g id="patch_8">
     <path d="M 795.7675 494.177445 
L 984.986875 494.177445 
Q 987.386875 494.177445 987.386875 491.777445 
L 987.386875 440.136195 
Q 987.386875 437.736195 984.986875 437.736195 
L 795.7675 437.736195 
Q 793.3675 437.736195 793.3675 440.136195 
L 793.3675 491.777445 
Q 793.3675 494.177445 795.7675 494.177445 
z
" style="fill: #ffffff; opacity: 0.9; stroke: #cccccc; stroke-linejoin: miter"/>
    </g>
    <g id="line2d_31">
     <path d="M 798.1675 447.45432 
L 810.1675 447.45432 
L 822.1675 447.45432 
" style="fill: none; stroke: #1f77b4; stroke-width: 2.5; stroke-linecap: square"/>
    </g>
    <g id="text_18">
     <text style="font-size: 12px; font-family: 'DejaVu Sans', 'Bitstream Vera Sans', 'Computer Modern Sans Serif', 'Lucida Grande', 'Verdana', 'Geneva', 'Lucid', 'Arial', 'Helvetica', 'Avant Garde', sans-serif; text-anchor: start" x="831.7675" y="451.65432" transform="rotate(-0 831.7675 451.65432)">Tencent Closing Price</text>
    </g>
    <g id="line2d_32">
     <path d="M 798.1675 465.06807 
L 810.1675 465.06807 
L 822.1675 465.06807 
" style="fill: none; stroke-dasharray: 7.4,3.2; stroke-dashoffset: 0; stroke: #008000; stroke-opacity: 0.8; stroke-width: 2"/>
    </g>
    <g id="text_19">
     <text style="font-size: 12px; font-family: 'DejaVu Sans', 'Bitstream Vera Sans', 'Computer Modern Sans Serif', 'Lucida Grande', 'Verdana', 'Geneva', 'Lucid', 'Arial', 'Helvetica', 'Avant Garde', sans-serif; text-anchor: start" x="831.7675" y="469.26807" transform="rotate(-0 831.7675 469.26807)">Career Start: 2023-07-13</text>
    </g>
    <g id="patch_9">
     <path d="M 798.1675 486.88182 
L 822.1675 486.88182 
L 822.1675 478.48182 
L 798.1675 478.48182 
z
" style="fill: #ffd700; opacity: 0.15; stroke: #ffd700; stroke-linejoin: miter"/>
    </g>
    <g id="text_20">
     <text style="font-size: 12px; font-family: 'DejaVu Sans', 'Bitstream Vera Sans', 'Computer Modern Sans Serif', 'Lucida Grande', 'Verdana', 'Geneva', 'Lucid', 'Arial', 'Helvetica', 'Avant Garde', sans-serif; text-anchor: start" x="831.7675" y="486.88182" transform="rotate(-0 831.7675 486.88182)">Career Period (Ongoing)</text>
    </g>
   </g>
  </g>
 </g>
 <defs>
  <clipPath id="p2de11dc02a">
   <rect x="50.836875" y="40.8575" width="942.55" height="459.319945"/>
  </clipPath>
 </defs>
</svg>
